<svg width="172" height="255" viewBox="0 0 172 255" xmlns="http://www.w3.org/2000/svg" xmlns:xlink="http://www.w3.org/1999/xlink"><title>Page 1</title><defs><path id="a" d="M166.808.992H0v140.815h166.808V.992z"/><path d="M15.633 36.67c5.605-5.43 6.406-6.391 12.999-11.619V20.85c-7.987-4.357-1.033-.905-14.06-17.099L1.235.935S-4.37 15.237 15.633 36.67z" id="c"/><path d="M14.887 2.821C1.861 19.014 8.814 15.563.827 19.92v4.201c6.594 5.228 7.394 6.188 13 11.619C33.828 14.306 28.224.005 28.224.005L14.887 2.821z" id="e"/></defs><g fill="none" fill-rule="evenodd"><path d="M22.757 239.966l-1.607 9.171 147.745-.942s-33.395-112.942-51.64-130.891c-18.246-17.949-87.721 62.909-94.498 122.662" fill="#FFF"/><path d="M110.62 116.763c-1.577 0-3.37.354-5.37 1.062-25.494 9.027-74.895 72.9-80.505 122.367l-.018.12-1.193 6.809 142.679-.91c-5.081-16.834-34.191-111.573-50.361-127.481-1.333-1.311-3.083-1.967-5.231-1.967zm-91.854 134.39l2.01-11.472c5.896-51.696 56.15-116.07 83.139-125.627 7.832-2.774 12.34-.538 14.742 1.824 18.402 18.104 50.786 127.117 52.156 131.749l.754 2.55-152.801.976z" fill="#000"/><path d="M50.745 117.304c12.038 23.992 36.693 21.407 36.693 21.407 12.036 1.705 17.517-18.673 29.817-21.407 15.556-3.458 34.288-22.297 31.419-34.996 32.73-60.278 5.274-79.727 5.274-79.727-13.375 12.686-32.546 33.62-36.693 39.132-8.995-6.835-21.035-7.995-29.69-7.995-.154 0-.364.023-.533.026v.027c-9.304.108-24.928 2.637-26.87 6.745-17.53-21.082-38.163-14.341-51.538-27.027 0 0-23.23 10.798 17.257 78.918-5.89 12.129 24.864 24.897 24.864 24.897" fill="#FFF"/><g transform="translate(0 -.992)"><mask id="b" fill="#fff"><use xlink:href="#a"/></mask><path d="M87.474 137.689l.244.034c5.36.756 9.356-4 13.978-9.513 4.31-5.139 8.767-10.454 15.125-11.867 9.424-2.094 20.534-10.347 26.413-19.624 3.096-4.885 4.302-9.373 3.488-12.977l-.165-.735.358-.662c9.095-16.748 19.044-40.874 14.798-60.709-1.827-8.535-5.728-13.356-7.715-15.345-12.937 12.44-31.045 32.168-35.146 37.616l-1.208 1.607-1.6-1.217c-6.399-4.861-15.554-7.41-27.225-7.578l-1.764.044c-12.454.145-24.088 3.492-25.085 5.6l-1.34 2.836-2.006-2.413C48.99 31.2 38.53 28.413 28.412 25.718 21.17 23.79 14.303 21.96 8.473 17.03c-.997.904-2.522 2.753-3.515 6.172C2.192 32.724 3.874 52.458 27.6 92.376l.55.926-.47.97c-.69 1.423-.727 2.905-.11 4.533 2.84 7.491 18.245 15.276 23.942 17.644l.686.285.334.666c11.287 22.493 34.465 20.338 34.697 20.314l.245-.025zm1.408 4.118c-.489 0-.989-.03-1.5-.094-2.748.189-26.148 1.047-38.089-21.862-3.817-1.663-21.783-9.927-25.463-19.626-.873-2.3-.933-4.538-.18-6.668C-.546 52.591-1.913 31.877 1.231 21.7c2.101-6.799 6.1-8.825 6.55-9.034l1.232-.573.987.936c5.343 5.068 11.877 6.807 19.442 8.824 9.736 2.593 20.71 5.517 30.76 16.647 1.576-1.17 4.526-2.58 10.208-3.82 4.502-.982 9.93-1.667 14.622-1.864v-.02l2.121-.07c.146-.01.291-.017.413-.017 12.235 0 22.08 2.441 29.3 7.262 5.974-7.316 23.565-26.336 35.706-37.85l1.191-1.13 1.341.95c1.176.833 28.332 21.038-4.33 81.68.748 4.5-.682 9.749-4.16 15.239-6.396 10.088-18.56 19.084-28.926 21.388-5.03 1.119-9.045 5.904-12.927 10.532-4.552 5.428-9.246 11.025-15.879 11.025z" fill="#000" mask="url(#b)"/></g><g transform="translate(14 32.008)"><mask id="d" fill="#fff"><use xlink:href="#c"/></mask><path fill="#F1AAC2" mask="url(#d)" d="M-4.37 36.67h4.063V.934H-4.37zM-.306 36.67h.419V.934h-.419z"/><path fill="#F1A9C1" mask="url(#d)" d="M.113 36.67h.419V.934H.113z"/><path fill="#F1A8C1" mask="url(#d)" d="M.532 36.67h.419V.934H.532z"/><path fill="#F0A7C0" mask="url(#d)" d="M.951 36.67h.419V.934H.951z"/><path fill="#F0A6BF" mask="url(#d)" d="M1.371 36.67h.419V.934h-.419z"/><path fill="#F0A5BE" mask="url(#d)" d="M1.79 36.67h.419V.934H1.79z"/><path fill="#F0A4BE" mask="url(#d)" d="M2.209 36.67h.419V.934h-.419z"/><path fill="#F0A3BD" mask="url(#d)" d="M2.628 36.67h.419V.934h-.419z"/><path fill="#F0A2BC" mask="url(#d)" d="M3.047 36.67h.419V.934h-.419z"/><path fill="#EFA1BB" mask="url(#d)" d="M3.466 36.67h.419V.934h-.419z"/><path fill="#EFA0BB" mask="url(#d)" d="M3.886 36.67h.419V.934h-.419z"/><path fill="#EF9FBA" mask="url(#d)" d="M4.305 36.67h.419V.934h-.419z"/><path fill="#EF9EB9" mask="url(#d)" d="M4.724 36.67h.419V.934h-.419z"/><path fill="#EF9DB9" mask="url(#d)" d="M5.143 36.67h.419V.934h-.419z"/><path fill="#EF9CB8" mask="url(#d)" d="M5.563 36.67h.419V.934h-.419z"/><path fill="#EE9BB7" mask="url(#d)" d="M5.981 36.67H6.4V.934h-.419z"/><path fill="#EE9AB6" mask="url(#d)" d="M6.401 36.67h.419V.934h-.419z"/><path fill="#EE99B6" mask="url(#d)" d="M6.82 36.67h.419V.934H6.82z"/><path fill="#EE98B5" mask="url(#d)" d="M7.239 36.67h.419V.934h-.419z"/><path fill="#EE97B4" mask="url(#d)" d="M7.659 36.67h.419V.934h-.419z"/><path fill="#EE96B3" mask="url(#d)" d="M8.078 36.67h.419V.934h-.419z"/><path fill="#ED95B3" mask="url(#d)" d="M8.497 36.67h.419V.934h-.419z"/><path fill="#ED94B2" mask="url(#d)" d="M8.916 36.67h.419V.934h-.419z"/><path fill="#ED93B1" mask="url(#d)" d="M9.335 36.67h.419V.934h-.419z"/><path fill="#ED92B1" mask="url(#d)" d="M9.754 36.67h.419V.934h-.419z"/><path fill="#ED91B0" mask="url(#d)" d="M10.174 36.67h.419V.934h-.419z"/><path fill="#ED90AF" mask="url(#d)" d="M10.593 36.67h.419V.934h-.419z"/><path fill="#EC8FAE" mask="url(#d)" d="M11.012 36.67h.419V.934h-.419z"/><path fill="#EC8EAE" mask="url(#d)" d="M11.431 36.67h.419V.934h-.419z"/><path fill="#EC8DAD" mask="url(#d)" d="M11.851 36.67h.419V.934h-.419z"/><path fill="#EC8CAC" mask="url(#d)" d="M12.27 36.67h.419V.934h-.419z"/><path fill="#EC8BAB" mask="url(#d)" d="M12.689 36.67h.419V.934h-.419z"/><path fill="#EC8AAB" mask="url(#d)" d="M13.108 36.67h.419V.934h-.419z"/><path fill="#EB89AA" mask="url(#d)" d="M13.527 36.67h.419V.934h-.419z"/><path fill="#EB88A9" mask="url(#d)" d="M13.946 36.67h.419V.934h-.419z"/><path fill="#EB87A9" mask="url(#d)" d="M14.366 36.67h.419V.934h-.419z"/><path fill="#EB85A8" mask="url(#d)" d="M14.785 36.67h.419V.934h-.419z"/><path fill="#EB84A7" mask="url(#d)" d="M15.204 36.67h.419V.934h-.419z"/><path fill="#EA83A6" mask="url(#d)" d="M15.623 36.67h.419V.934h-.419z"/><path fill="#EA82A6" mask="url(#d)" d="M16.042 36.67h.419V.934h-.419z"/><path fill="#EA81A5" mask="url(#d)" d="M16.461 36.67h.419V.934h-.419z"/><path fill="#EA80A4" mask="url(#d)" d="M16.881 36.67h.419V.934h-.419z"/><path fill="#EA7FA3" mask="url(#d)" d="M17.3 36.67h.419V.934H17.3z"/><path fill="#EA7EA3" mask="url(#d)" d="M17.719 36.67h.419V.934h-.419z"/><path fill="#E97DA2" mask="url(#d)" d="M18.138 36.67h.419V.934h-.419z"/><path fill="#E97CA1" mask="url(#d)" d="M18.558 36.67h.419V.934h-.419z"/><path fill="#E97BA0" mask="url(#d)" d="M18.977 36.67h.419V.934h-.419z"/><path fill="#E97AA0" mask="url(#d)" d="M19.396 36.67h.419V.934h-.419z"/><path fill="#E9799F" mask="url(#d)" d="M19.815 36.67h.419V.934h-.419z"/><path fill="#E9789E" mask="url(#d)" d="M20.234 36.67h.419V.934h-.419z"/><path fill="#E8779E" mask="url(#d)" d="M20.653 36.67h.419V.934h-.419z"/><path fill="#E8769D" mask="url(#d)" d="M21.073 36.67h.419V.934h-.419z"/><path fill="#E8759C" mask="url(#d)" d="M21.492 36.67h.419V.934h-.419z"/><path fill="#E8749B" mask="url(#d)" d="M21.911 36.67h.419V.934h-.419z"/><path fill="#E8739B" mask="url(#d)" d="M22.33 36.67h.419V.934h-.419z"/><path fill="#E8729A" mask="url(#d)" d="M22.75 36.67h.419V.934h-.419z"/><path fill="#E77199" mask="url(#d)" d="M23.169 36.67h.419V.934h-.419z"/><path fill="#E77098" mask="url(#d)" d="M23.588 36.67h.419V.934h-.419z"/><path fill="#E76F98" mask="url(#d)" d="M24.007 36.67h.419V.934h-.419z"/><path fill="#E76E97" mask="url(#d)" d="M24.426 36.67h.419V.934h-.419z"/><path fill="#E76D96" mask="url(#d)" d="M24.846 36.67h.419V.934h-.419z"/><path fill="#E76C96" mask="url(#d)" d="M25.265 36.67h.419V.934h-.419z"/><path fill="#E66B95" mask="url(#d)" d="M25.684 36.67h.419V.934h-.419z"/><path fill="#E66A94" mask="url(#d)" d="M26.103 36.67h.419V.934h-.419z"/><path fill="#E66993" mask="url(#d)" d="M26.522 36.67h.419V.934h-.419z"/><path fill="#E66893" mask="url(#d)" d="M26.941 36.67h.419V.934h-.419z"/><path fill="#E66792" mask="url(#d)" d="M27.361 36.67h.419V.934h-.419z"/><path fill="#E66691" mask="url(#d)" d="M27.78 36.67h.419V.934h-.419z"/><path fill="#E56590" mask="url(#d)" d="M28.199 36.67h.419V.934h-.419z"/><path fill="#E56490" mask="url(#d)" d="M28.618 36.671h.014V.935h-.014z"/></g><g><path d="M15.7 33.727c-.712 2.748-2.831 15.724 13.958 33.99l1.489-1.447c3.915-3.813 5.273-5.135 10.814-9.535v-3.479c-3.941-2.157-4.145-2.419-5.21-4.479-.89-1.724-2.541-4.92-8.552-12.41l-12.5-2.64zm13.909 35.91l-.468-.5C9.08 47.64 14.375 33.296 14.61 32.696l.208-.53 14.128 2.983.15.187c6.217 7.73 7.929 11.043 8.849 12.824.952 1.842.989 1.914 5.009 4.107l.35.19v4.926l-.254.201c-5.702 4.521-7.028 5.812-10.966 9.647l-2.475 2.405zM68.411 121.893l-4.877-2.254c2.361-5.108 10.841-7.96 25.205-8.478 1.115-.04 2.09-.226 3.032-.405 3.663-.698 6.65-.876 11.693 3.217l-3.386 4.172c-3.494-2.836-4.768-2.592-7.302-2.11-1.088.207-2.32.44-3.844.496-13.542.488-19.518 3.193-20.52 5.362" fill="#000"/><path fill="#000" d="M86.157 114.047l-1.397-18.62 5.357-.402 1.397 18.62z"/><path d="M82.196 64.748s-4.938 19.864-7.631 24.914c0 0-8.93 3.03-.263 8.471 10.715 6.728 20.048 11.405 23.275-9.459.573-3.71-7.768-18.973-8.136-20.064l-7.245-3.862z" fill="#000"/><path d="M82.443 65.305c-.78 3.095-5.062 19.872-7.547 24.534l-.07.13-.141.048c-.035.013-3.532 1.227-3.78 3.342-.157 1.36 1.052 2.86 3.596 4.457 5.987 3.76 11.707 6.98 15.897 5.065 3.332-1.521 5.559-6.187 6.809-14.264.43-2.797-4.731-13.061-6.935-17.443-.63-1.252-.984-1.96-1.13-2.298l-6.7-3.571zm5.203 38.895c-3.987 0-8.686-2.7-13.543-5.75-2.812-1.764-4.138-3.507-3.942-5.18.274-2.333 3.413-3.64 4.139-3.911 2.655-5.15 7.483-24.505 7.532-24.701l.116-.467 7.8 4.158.049.14c.07.21.544 1.153 1.145 2.347 2.426 4.824 7.475 14.86 7.006 17.896-1.291 8.345-3.66 13.197-7.238 14.832-.962.439-1.988.636-3.064.636zM6.16 105.035l-.07-.997 65.038-4.63.072.997z" fill="#000"/><path fill="#000" d="M71.103 96.402L14.04 89.403l.122-.992 57.063 6.999zM11.34 120.483l-.225-.975 67.54-15.601.225.974zM99.06 99.853l-.102-.995 59.567-6.135.101.995zM162.998 111.1l-66.806-7.349.11-.994 66.805 7.348zM57.018 60.023C56.942 56.578 42.21 29.95 42.633 27.24c.252-1.619 16.16 12.012 17.385 11.261 32.244-19.767 54.808 4.865 57.237 3.212l-29.817 18.31h-30.42z"/><path d="M96.247 80.275s2.96-23.714 18.15-21.717c15.192 1.997 14.037 8.914 14.037 8.914s6.12 29.3-32.187 12.803" fill="#FFF"/><path d="M97.913 79.352c12.212 5.09 21.049 5.83 25.592 2.125 5.318-4.332 3.479-13.606 3.46-13.7l-.057-.274.046-.277c0-.02.469-5.443-12.751-7.181-3.005-.393-5.591.286-7.915 2.079-5.654 4.365-7.795 13.965-8.375 17.228m17.704 7.454c-5.317 0-11.988-1.72-19.964-5.153l-1.034-.446.14-1.118c.072-.58 1.865-14.287 9.689-20.334 2.949-2.278 6.365-3.181 10.146-2.684 6.938.912 11.624 2.95 13.926 6.06 1.38 1.867 1.465 3.56 1.426 4.264.3 1.653 1.734 11.277-4.534 16.398-2.46 2.009-5.731 3.013-9.795 3.013" fill="#000"/><path d="M119.02 73.679a5.765 5.765 0 1 1-11.53 0 5.765 5.765 0 1 1 11.53 0" fill="#000"/><path d="M113.255 69.652a4.032 4.032 0 0 0-4.027 4.027 4.03 4.03 0 0 0 4.027 4.027 4.03 4.03 0 0 0 4.026-4.027 4.031 4.031 0 0 0-4.026-4.027m0 11.53c-4.138 0-7.504-3.365-7.504-7.503 0-4.137 3.366-7.504 7.504-7.504 4.137 0 7.503 3.367 7.503 7.504 0 4.138-3.366 7.503-7.503 7.503" fill="#000"/><path d="M75.308 80.967S71.014 61.988 55.76 64.021c-15.255 2.034-12.775 3.91-12.775 3.91s-6.147 29.832 32.324 13.036" fill="#FFF"/><path d="M44.506 67.975l-.053.26c-.02.093-1.886 9.641 3.555 14.04 4.566 3.693 13.37 2.938 25.505-2.17-.503-1.637-1.61-4.704-3.552-7.609-3.605-5.395-8.323-7.743-14.003-6.988-7.94 1.058-10.6 2.027-11.452 2.467m11.35 19.614c-4.031 0-7.286-.996-9.746-2.99-6.077-4.927-5.065-14.092-4.691-16.43a1.89 1.89 0 0 1-.02-1.046c.357-1.354 1.775-2.938 14.162-4.589 16.43-2.193 21.165 17.9 21.21 18.102l.274 1.21-1.137.495C67.9 85.838 61.197 87.59 55.856 87.59" fill="#000"/><path d="M51.018 75.332a5.764 5.764 0 1 1 11.53 0 5.765 5.765 0 1 1-11.53 0" fill="#000"/><path d="M56.782 71.304a4.031 4.031 0 0 0-4.026 4.027 4.03 4.03 0 0 0 4.026 4.027 4.03 4.03 0 0 0 4.027-4.027 4.032 4.032 0 0 0-4.027-4.027m0 11.53c-4.137 0-7.503-3.365-7.503-7.503 0-4.137 3.366-7.504 7.503-7.504 4.138 0 7.504 3.367 7.504 7.504 0 4.138-3.366 7.503-7.504 7.503" fill="#000"/></g><g transform="translate(126 29.008)"><mask id="f" fill="#fff"><use xlink:href="#e"/></mask><path fill="#F1AAC2" mask="url(#f)" d="M29.765 35.74h4.063V.004h-4.063zM29.346 35.74h.419V.004h-.419z"/><path fill="#F1A9C1" mask="url(#f)" d="M28.927 35.74h.419V.004h-.419z"/><path fill="#F1A8C1" mask="url(#f)" d="M28.508 35.74h.419V.004h-.419z"/><path fill="#F0A7C0" mask="url(#f)" d="M28.088 35.74h.42V.004h-.42z"/><path fill="#F0A6BF" mask="url(#f)" d="M27.669 35.74h.419V.004h-.419z"/><path fill="#F0A5BE" mask="url(#f)" d="M27.251 35.74h.419V.004h-.419z"/><path fill="#F0A4BE" mask="url(#f)" d="M26.832 35.74h.419V.004h-.419z"/><path fill="#F0A3BD" mask="url(#f)" d="M26.412 35.74h.42V.004h-.42z"/><path fill="#F0A2BC" mask="url(#f)" d="M25.993 35.74h.419V.004h-.419z"/><path fill="#EFA1BB" mask="url(#f)" d="M25.574 35.74h.419V.004h-.419z"/><path fill="#EFA0BB" mask="url(#f)" d="M25.155 35.74h.419V.004h-.419z"/><path fill="#EF9FBA" mask="url(#f)" d="M24.735 35.74h.42V.004h-.42z"/><path fill="#EF9EB9" mask="url(#f)" d="M24.316 35.74h.419V.004h-.419z"/><path fill="#EF9DB9" mask="url(#f)" d="M23.897 35.74h.419V.004h-.419z"/><path fill="#EF9CB8" mask="url(#f)" d="M23.478 35.74h.419V.004h-.419z"/><path fill="#EE9BB7" mask="url(#f)" d="M23.058 35.74h.42V.004h-.42z"/><path fill="#EE9AB6" mask="url(#f)" d="M22.639 35.74h.419V.004h-.419z"/><path fill="#EE99B6" mask="url(#f)" d="M22.22 35.74h.419V.004h-.419z"/><path fill="#EE98B5" mask="url(#f)" d="M21.801 35.74h.419V.004h-.419z"/><path fill="#EE97B4" mask="url(#f)" d="M21.381 35.74h.42V.004h-.42z"/><path fill="#EE96B3" mask="url(#f)" d="M20.962 35.74h.419V.004h-.419z"/><path fill="#ED95B3" mask="url(#f)" d="M20.544 35.74h.419V.004h-.419z"/><path fill="#ED94B2" mask="url(#f)" d="M20.125 35.74h.419V.004h-.419z"/><path fill="#ED93B1" mask="url(#f)" d="M19.705 35.74h.42V.004h-.42z"/><path fill="#ED92B1" mask="url(#f)" d="M19.286 35.74h.419V.004h-.419z"/><path fill="#ED91B0" mask="url(#f)" d="M18.867 35.74h.419V.004h-.419z"/><path fill="#ED90AF" mask="url(#f)" d="M18.447 35.74h.42V.004h-.42z"/><path fill="#EC8FAE" mask="url(#f)" d="M18.028 35.74h.419V.004h-.419z"/><path fill="#EC8EAE" mask="url(#f)" d="M17.609 35.74h.419V.004h-.419z"/><path fill="#EC8DAD" mask="url(#f)" d="M17.19 35.74h.419V.004h-.419z"/><path fill="#EC8CAC" mask="url(#f)" d="M16.77 35.74h.42V.004h-.42z"/><path fill="#EC8BAB" mask="url(#f)" d="M16.351 35.74h.419V.004h-.419z"/><path fill="#EC8AAB" mask="url(#f)" d="M15.932 35.74h.419V.004h-.419z"/><path fill="#EB89AA" mask="url(#f)" d="M15.513 35.74h.419V.004h-.419z"/><path fill="#EB88A9" mask="url(#f)" d="M15.093 35.74h.42V.004h-.42z"/><path fill="#EB87A9" mask="url(#f)" d="M14.674 35.74h.419V.004h-.419z"/><path fill="#EB85A8" mask="url(#f)" d="M14.255 35.74h.419V.004h-.419z"/><path fill="#EB84A7" mask="url(#f)" d="M13.836 35.74h.419V.004h-.419z"/><path fill="#EA83A6" mask="url(#f)" d="M13.417 35.74h.42V.004h-.42z"/><path fill="#EA82A6" mask="url(#f)" d="M12.998 35.74h.419V.004h-.419z"/><path fill="#EA81A5" mask="url(#f)" d="M12.579 35.74h.419V.004h-.419z"/><path fill="#EA80A4" mask="url(#f)" d="M12.16 35.74h.419V.004h-.419z"/><path fill="#EA7FA3" mask="url(#f)" d="M11.74 35.74h.42V.004h-.42z"/><path fill="#EA7EA3" mask="url(#f)" d="M11.321 35.74h.419V.004h-.419z"/><path fill="#E97DA2" mask="url(#f)" d="M10.902 35.74h.419V.004h-.419z"/><path fill="#E97CA1" mask="url(#f)" d="M10.483 35.74h.419V.004h-.419z"/><path fill="#E97BA0" mask="url(#f)" d="M10.063 35.74h.42V.004h-.42z"/><path fill="#E97AA0" mask="url(#f)" d="M9.644 35.74h.419V.004h-.419z"/><path fill="#E9799F" mask="url(#f)" d="M9.225 35.74h.419V.004h-.419z"/><path fill="#E9789E" mask="url(#f)" d="M8.806 35.74h.419V.004h-.419z"/><path fill="#E8779E" mask="url(#f)" d="M8.386 35.74h.42V.004h-.42z"/><path fill="#E8769D" mask="url(#f)" d="M7.967 35.74h.419V.004h-.419z"/><path fill="#E8759C" mask="url(#f)" d="M7.548 35.74h.419V.004h-.419z"/><path fill="#E8749B" mask="url(#f)" d="M7.129 35.74h.419V.004h-.419z"/><path fill="#E8739B" mask="url(#f)" d="M6.71 35.74h.42V.004h-.42z"/><path fill="#E8729A" mask="url(#f)" d="M6.291 35.74h.419V.004h-.419z"/><path fill="#E77199" mask="url(#f)" d="M5.872 35.74h.419V.004h-.419z"/><path fill="#E77098" mask="url(#f)" d="M5.453 35.74h.419V.004h-.419z"/><path fill="#E76F98" mask="url(#f)" d="M5.033 35.74h.42V.004h-.42z"/><path fill="#E76E97" mask="url(#f)" d="M4.614 35.74h.419V.004h-.419z"/><path fill="#E76D96" mask="url(#f)" d="M4.195 35.74h.419V.004h-.419z"/><path fill="#E76C96" mask="url(#f)" d="M3.775 35.74h.42V.004h-.42z"/><path fill="#E66B95" mask="url(#f)" d="M3.356 35.74h.419V.004h-.419z"/><path fill="#E66A94" mask="url(#f)" d="M2.937 35.74h.419V.004h-.419z"/><path fill="#E66993" mask="url(#f)" d="M2.518 35.74h.419V.004h-.419z"/><path fill="#E66893" mask="url(#f)" d="M2.098 35.74h.42V.004h-.42z"/><path fill="#E66792" mask="url(#f)" d="M1.679 35.74h.419V.004h-.419z"/><path fill="#E66691" mask="url(#f)" d="M1.26 35.74h.419V.004H1.26z"/><path fill="#E56590" mask="url(#f)" d="M.841 35.74h.419V.004H.841z"/><path fill="#E56490" mask="url(#f)" d="M.826 35.74h.015V.004H.826z"/></g><g><path d="M127.499 52.805c5.539 4.398 6.895 5.72 10.809 9.53l1.494 1.452c9.804-10.67 13.05-19.436 14.043-24.944.84-4.677.238-7.844-.081-9.047l-12.503 2.64c-6.01 7.49-7.661 10.687-8.552 12.41-1.065 2.06-1.27 2.323-5.21 4.48v3.479zm12.353 12.902l-2.481-2.41c-3.936-3.832-5.262-5.123-10.961-9.641l-.255-.202v-4.925l.35-.191c4.02-2.193 4.058-2.265 5.01-4.108.92-1.78 2.632-5.093 8.849-12.822l.15-.187 14.129-2.983.207.529c.235.6 5.528 14.943-14.532 36.439l-.466.5zM117.254 117.304s-.585 3.282-1.228 8.442c-2.213 17.762-5.118 57.78 12.767 62.85 23.08 6.542 29.664 26.2 28.168 21.687-1.495-4.515-38.477-101.42-39.706-92.98" fill="#000"/><path d="M18.323 252l-.01-81.118s3.886-22.142 8.396-23.028c4.509-.885 5.765-21.572 5.765-21.572 8.824-16.068 9.243 9.51 5.765 20.687-3.478 11.177 15.383-.509 12.76 7.97-6.297 20.354-15.58 86.738-12.76 96.97l-19.916.09z" fill="#FFF"/><path d="M20.314 171.057l.009 78.934 15.588-.072c-1.407-16.05 7.265-76.461 13.177-95.57.103-.335.143-.563.156-.706-.763-.175-2.689.06-3.885.209-3.119.388-6.657.82-8.529-1.423-1.169-1.4-1.333-3.38-.501-6.054 2.527-8.123 2.341-20.785.781-23.12-.4.295-1.284 1.156-2.669 3.605-.535 8.35-2.198 21.946-7.347 22.958-1.734.834-4.923 10.744-6.78 21.239zm-3.991 82.95l.021-83.471c1.539-8.774 4.883-23.643 9.979-24.644 1.407-.772 3.508-9.08 4.155-19.731l.026-.448.217-.393c1.128-2.054 4.129-7.516 7.845-5.93 5.593 2.378 3.825 20.964 1.582 28.173-.481 1.546-.337 2.196-.249 2.303.477.57 3.513.196 4.972.016 3.056-.375 5.945-.732 7.539 1.173.912 1.092 1.08 2.597.499 4.476-6.58 21.27-15.274 86.66-12.742 95.846l.694 2.52-24.538.11z" fill="#000"/></g></g></svg>