<svg id="Layer_1" xmlns="http://www.w3.org/2000/svg" viewBox="0 0 376 148"><style>.st0{fill:#626363}.st1{fill:#424242}.st2{fill:#919191;stroke:#000;stroke-width:1.0663}.st3{fill:#353535}.st4{fill:#333}.st5{opacity:.8025;fill:#232323;enable-background:new}.st6{fill:#565656;stroke:#000;stroke-width:1.0663}.st7,.st8{fill:#3a3a3a;fill-opacity:.507}.st8{fill:#333}</style><title>dirt</title><path id="Shape" class="st0" d="M273.2.3c-4 0-7.7 1.3-10.6 3.4-2.3-1.1-5-1.8-7.8-1.8-9.2 0-16.6 6.6-16.6 14.7 0 1.6.3 3.1.8 4.6-2.6 2.6-4.2 6-4.2 9.7 0 1.3.2 2.5.5 3.7-1.5.4-2.9 1-4.1 1.8-2.5 1.1-4.6 2.8-6.2 4.8-1.5.6-3 1.2-4.4 1.9C218 37 213 32.6 207 31.6c-3.1-2.8-6.9-4.4-11.1-4.4-4 0-7.6 1.5-10.6 4-2.8-2-6-3.2-9.5-3.2-9.5 0-17.3 8.5-18.2 19.4-1.7-.6-3.5-.9-5.3-.9-5.6 0-10.6 3-14 7.6-.9 0-1.9-.1-2.8-.1-2.9 0-5.8.2-8.5.7-3.2-6.4-9.1-10.7-15.8-10.7-7.7 0-14.2 5.5-16.9 13.4-2.9-7.4-9.2-12.6-16.6-12.6-5.6 0-10.6 2.9-13.9 7.6-2.2-1.1-4.6-1.7-7.1-1.7-7.5 0-14 5.4-16.8 13-2.7-1.9-5.8-2.9-9.2-2.9-6.8 0-12.7 4.3-15.8 10.7-1.3-.7-2.8-1.1-4.3-1.1C4.8 70.4 0 76 0 82.9s4.8 12.5 10.7 12.5c1.8 0 3.5-.5 5-1.4.1.1.2.2.2.3 1.4 4 4.5 7 8.3 7.7 2.1.9 4.3 1.5 6.6 1.5 3.3 0 6.3-1 9-2.8 1.3 5.2 5.4 9.1 10.3 9.1.8 0 1.5-.1 2.3-.3 2.3 1.1 4.9 1.8 7.6 1.8 2.3 0 4.5-.5 6.5-1.3 1.9 2 4.4 3.2 7.1 3.2 3.4 0 6.4-1.9 8.4-4.8 4.4 7.9 16.1 13.7 30.2 14.4 1.8 3.8 5.3 6.3 9.3 6.3 3.6 0 6.7-2 8.7-5.2 1 1.1 2.1 2.1 3.4 3.1.8 6 5.2 10.5 10.6 10.5 2.9 0 5.5-1.3 7.4-3.5h.3c1.6 4.5 5.4 7.7 9.9 7.7 1.3 0 2.5-.3 3.7-.8 6.3 4.3 15.5 7.1 25.7 7.1 13.5 0 25.2-4.8 30.9-11.8.8 0 1.6-.1 2.3-.2 2.1.9 4.5 1.5 7 1.5 6.9 0 12.8-3.9 15.3-9.3.4-.3.8-.6 1.2-1 .9.1 1.8.2 2.8.2 1.4 0 2.8-.2 4.2-.5 1.8 3.8 5.3 6.3 9.3 6.3 4.3 0 8-3 9.7-7.3.9.1 1.9.2 2.8.2 3.2 0 6.1-.8 8.6-2.2 1.9 2.1 4.5 3.4 7.3 3.4 4.5 0 8.4-3.3 10-8 .4 0 .9.1 1.3.1 1.1 0 2.2-.2 3.3-.4 1.8 1.6 4 2.5 6.4 2.5 4.4 0 8.2-3.1 9.8-7.6 2.5 1.4 5.5 2.2 8.6 2.2 6.4 0 12-3.3 14.8-8.2 1.9.7 4 1.1 6.2 1.1 9.2 0 16.6-6.8 16.6-15.1 0-1-.1-1.9-.3-2.9 1.3-2.1 2-4.6 2-7.2 0-4.9-2.5-9.2-6.5-11.9.4-1.3.6-2.6.6-4 0-8.3-7.4-15.1-16.6-15.1-.8 0-1.6.1-2.4.2.3-1.1.5-2.3.5-3.5 0-8.1-7.4-14.7-16.6-14.7h-.8c-1.8-3.8-5.3-6.3-9.3-6.3-1.5 0-3 .4-4.3 1.1-4.1-7-14-12.3-26.1-13.8 0-.3.1-.5.1-.8-.1-8.2-7.5-14.7-16.7-14.7zM314.9 55c.6 1.3 1.5 2.5 2.5 3.6-.9-.1-1.9-.2-2.8-.3.2-1 .3-2 .3-3.1V55zm-36.5 2.9c1.2.1 2.5.2 3.8.2.2.7.4 1.4.7 2-1.4-.7-3-1.3-4.6-1.8 0-.1 0-.2.1-.4z"/><path id="Shape_1_" class="st1" d="M273.6.4c-4 0-7.7 1.3-10.6 3.4-2.3-1.1-5-1.8-7.8-1.8-1.4 0-2.7.2-4 .5 2.9 2.2 5.7 4.6 8.2 6.9 11.3 1.2 20.1 10.3 20.1 21.2 0 2.4-.4 4.7-1.2 6.8 1.6 5 2.5 10.2 2.5 15.4v.1c4.5 3.9 7.2 9.5 7.2 15.6 0 11.7-10 21.2-22.4 21.4-.4.4-.8.9-1.2 1.3 1 2.1 1.5 4.5 1.5 6.8 0 11.8-12.8 21.4-28.7 21.4-1.4 0-2.8-.1-4.2-.2-2.4 10.3-16.8 18.3-34.2 18.3-6.1 0-11.8-1-16.8-2.7-3.3 3.8-8 6.6-13.5 7.7 6.1 3.3 14.1 5.3 22.8 5.3 13.5 0 25.2-4.8 30.9-11.8.8 0 1.6-.1 2.3-.2 2.1.9 4.5 1.5 7 1.5 6.9 0 12.8-3.9 15.3-9.3.4-.3.8-.6 1.2-1 .9.1 1.8.2 2.8.2 1.4 0 2.8-.2 4.2-.5 1.8 3.8 5.3 6.3 9.3 6.3 4.3 0 8-3 9.7-7.3.9.1 1.9.2 2.8.2 3.2 0 6.1-.8 8.6-2.2 1.9 2.1 4.5 3.4 7.3 3.4 4.5 0 8.4-3.3 10-8 .4 0 .9.1 1.3.1 1.1 0 2.2-.2 3.3-.4 1.8 1.6 4 2.5 6.4 2.5 4.4 0 8.2-3.1 9.8-7.6 2.5 1.4 5.5 2.2 8.6 2.2 6.4 0 12-3.3 14.8-8.2 1.9.7 4 1.1 6.2 1.1 9.2 0 16.6-6.8 16.6-15.1 0-1-.1-1.9-.3-2.9 1.3-2.1 2-4.6 2-7.2 0-4.9-2.5-9.2-6.5-11.9.4-1.3.6-2.6.6-4 0-8.3-7.4-15.1-16.6-15.1-.8 0-1.6.1-2.4.2.3-1.1.5-2.3.5-3.5 0-8.1-7.4-14.7-16.6-14.7h-.8c-1.8-3.8-5.3-6.3-9.3-6.3-1.5 0-3 .4-4.3 1.1-4.1-7-14-12.3-26.1-13.8 0-.3.1-.5.1-.8.2-7.9-7.2-14.4-16.4-14.4zm41.8 54.7c.6 1.3 1.5 2.5 2.5 3.6-.9-.1-1.9-.2-2.8-.3.2-1 .3-2 .3-3.1v-.2z"/><path id="Shape_2_" class="st2" d="M161.4 114.7c1.5 0 2.8.4 4 1.1h.1c4 0 7.3 3.2 7.5 7.1v.4c0 1.1-.2 2.1-.7 3.1.8 1.2 1.3 2.6 1.3 4.2v.4c-.2 4-3.5 7.1-7.5 7.1-.4 0-.8 0-1.2-.1-1.2.8-2.6 1.2-4.1 1.2-1.5 0-2.8-.4-4-1.1h-.4c-4.2 0-7.5-3.4-7.5-7.5 0-1.1.2-2.1.7-3.1-.8-1.2-1.3-2.6-1.3-4.2 0-4.2 3.4-7.5 7.5-7.5.5 0 1 0 1.5.1 1.1-.7 2.6-1.2 4.1-1.2z"/><path id="Shape_3_" class="st3" d="M163.3 117.1c1.5 0 2.8.4 4 1.1h.1c4 0 7.3 3.2 7.5 7.1v.4c0 1.1-.2 2.1-.7 3.1.8 1.2 1.3 2.6 1.3 4.2v.4c-.2 4-3.5 7.1-7.5 7.1-.4 0-.8 0-1.2-.1-1.2.8-2.6 1.2-4.1 1.2-1.5 0-2.8-.4-4-1.1h-.4c-4.2 0-7.5-3.4-7.5-7.5 0-1.1.2-2.1.7-3.1-.8-1.2-1.3-2.6-1.3-4.2 0-4.2 3.4-7.5 7.5-7.5.5 0 1 0 1.5.1 1.1-.7 2.6-1.2 4.1-1.2z"/><path id="Shape_4_" class="st2" d="M244.5 114.2c1.5 0 2.8.4 4 1.1h.1c4 0 7.3 3.2 7.5 7.1v.4c0 1.1-.2 2.1-.7 3.1.8 1.2 1.3 2.6 1.3 4.2v.4c-.2 4-3.5 7.1-7.5 7.1-.4 0-.8 0-1.2-.1-1.2.8-2.6 1.2-4.1 1.2-1.5 0-2.8-.4-4-1.1h-.4c-4.2 0-7.5-3.4-7.5-7.5 0-1.1.2-2.1.7-3.1-.8-1.2-1.3-2.6-1.3-4.2 0-4.2 3.4-7.5 7.5-7.5.5 0 1 0 1.5.1 1.1-.8 2.6-1.2 4.1-1.2z"/><path id="Shape_5_" class="st4" d="M246.4 116.6c1.5 0 2.8.4 4 1.1h.1c4 0 7.3 3.2 7.5 7.1v.4c0 1.1-.2 2.1-.7 3.1.8 1.2 1.3 2.6 1.3 4.2v.4c-.2 4-3.5 7.1-7.5 7.1-.4 0-.8 0-1.2-.1-1.2.8-2.6 1.2-4.1 1.2-1.5 0-2.8-.4-4-1.1h-.4c-4.2 0-7.5-3.4-7.5-7.5 0-1.1.2-2.1.7-3.1-.8-1.2-1.3-2.6-1.3-4.2 0-4.2 3.4-7.5 7.5-7.5.5 0 1 0 1.5.1 1.1-.8 2.6-1.2 4.1-1.2z"/><path id="Shape_6_" class="st2" d="M353.5 67.6c2.2 0 4.3.7 6.1 1.7h.2c6.2 0 11.3 4.9 11.6 11v.6c0 1.7-.4 3.3-1 4.7 1.2 1.8 2 4.1 2 6.4v.6c-.3 6.1-5.4 11-11.6 11-.6 0-1.2 0-1.8-.1-1.8 1.2-4 1.9-6.3 1.9s-4.4-.6-6.2-1.8h-.7c-6.4 0-11.6-5.2-11.6-11.6 0-1.7.4-3.3 1-4.7-1.2-1.8-2-4-2-6.4 0-6.4 5.2-11.6 11.6-11.6.8 0 1.5.1 2.3.2 1.7-1.2 4-1.9 6.4-1.9z"/><path id="Shape_7_" class="st4" d="M356.4 71.3c2.2 0 4.3.7 6.1 1.7h.2c6.2 0 11.3 4.9 11.6 11v.6c0 1.7-.4 3.3-1 4.7 1.2 1.8 2 4.1 2 6.4v.6c-.3 6.1-5.4 11-11.6 11-.6 0-1.2 0-1.8-.1-1.8 1.2-4 1.9-6.3 1.9s-4.4-.6-6.2-1.8h-.7c-6.4 0-11.6-5.2-11.6-11.6 0-1.7.4-3.3 1-4.7-1.2-1.8-2-4-2-6.4 0-6.4 5.2-11.6 11.6-11.6.8 0 1.5.1 2.3.2 1.8-1.2 4-1.9 6.4-1.9z"/><path id="Shape_8_" class="st2" d="M303.2 47.1c1.5 0 3 .4 4.2 1.2h.1c4.3 0 7.8 3.3 8 7.6v.4c0 1.2-.3 2.2-.7 3.2.9 1.3 1.3 2.8 1.3 4.4v.4c-.2 4.2-3.7 7.6-8 7.6-.4 0-.8 0-1.2-.1-1.3.8-2.8 1.3-4.4 1.3-1.6 0-3-.4-4.2-1.2h-.5c-4.4 0-8-3.6-8-8 0-1.2.3-2.3.7-3.3-.9-1.3-1.4-2.8-1.4-4.4 0-4.4 3.6-8 8-8 .5 0 1.1.1 1.6.2 1.3-.8 2.9-1.3 4.5-1.3z"/><path id="Shape_9_" class="st5" d="M306.9 51.3c1.5 0 3 .4 4.2 1.2h.1c4.3 0 7.8 3.3 8 7.6v.4c0 1.2-.3 2.2-.7 3.2.9 1.3 1.3 2.8 1.3 4.4v.4c-.2 4.2-3.7 7.6-8 7.6-.4 0-.8 0-1.2-.1-1.3.8-2.8 1.3-4.4 1.3-1.6 0-3-.4-4.2-1.2h-.5c-4.4 0-8-3.6-8-8 0-1.2.3-2.3.7-3.3-.9-1.3-1.4-2.8-1.4-4.4 0-4.4 3.6-8 8-8 .5 0 1.1.1 1.6.2 1.3-.8 2.9-1.3 4.5-1.3z"/><path id="Shape_10_" class="st2" d="M31.5 80.6c1.5 0 2.8.4 4 1.1h.1c4 0 7.3 3.2 7.5 7.1v.4c0 1.1-.2 2.1-.7 3.1.8 1.2 1.3 2.6 1.3 4.2v.4c-.2 4-3.5 7.1-7.5 7.1-.4 0-.8 0-1.2-.1-1.2.8-2.6 1.2-4.1 1.2-1.5 0-2.8-.4-4-1.1h-.4c-4.2 0-7.5-3.4-7.5-7.5 0-1.1.2-2.1.7-3.1-.8-1.2-1.3-2.6-1.3-4.2 0-4.2 3.4-7.5 7.5-7.5.5 0 1 0 1.5.1 1.1-.7 2.5-1.2 4.1-1.2z"/><path id="Shape_11_" class="st3" d="M33.4 83c1.5 0 2.8.4 4 1.1h.1c4 0 7.3 3.2 7.5 7.1v.4c0 1.1-.2 2.1-.7 3.1.8 1.2 1.3 2.6 1.3 4.2v.4c-.2 4-3.5 7.1-7.5 7.1-.4 0-.8 0-1.2-.1-1.2.8-2.6 1.2-4.1 1.2-1.5 0-2.8-.4-4-1.1h-.4c-4.2 0-7.5-3.4-7.5-7.5 0-1.1.2-2.1.7-3.1-.8-1.2-1.3-2.6-1.3-4.2 0-4.2 3.4-7.5 7.5-7.5.5 0 1 0 1.5.1 1.1-.7 2.5-1.2 4.1-1.2z"/><path id="Shape_12_" class="st6" d="M108.6 85.6c1.5 0 2.8.4 4 1.1h.1c4 0 7.3 3.2 7.5 7.1v.4c0 1.1-.2 2.1-.7 3.1.8 1.2 1.3 2.6 1.3 4.2v.4c-.2 4-3.5 7.1-7.5 7.1-.4 0-.8 0-1.2-.1-1.2.8-2.6 1.2-4.1 1.2-1.5 0-2.8-.4-4-1.1h-.4c-4.2 0-7.5-3.4-7.5-7.5 0-1.1.2-2.1.7-3.1-.8-1.2-1.3-2.6-1.3-4.2 0-4.2 3.4-7.5 7.5-7.5.5 0 1 0 1.5.1 1.2-.7 2.6-1.2 4.1-1.2z"/><path id="Shape_13_" class="st7" d="M110.5 88c1.5 0 2.8.4 4 1.1h.1c4 0 7.3 3.2 7.5 7.1v.4c0 1.1-.2 2.1-.7 3.1.8 1.2 1.3 2.6 1.3 4.2v.4c-.2 4-3.5 7.1-7.5 7.1-.4 0-.8 0-1.2-.1-1.2.8-2.6 1.2-4.1 1.2-1.5 0-2.8-.4-4-1.1h-.4c-4.2 0-7.5-3.4-7.5-7.5 0-1.1.2-2.1.7-3.1-.8-1.2-1.3-2.6-1.3-4.2 0-4.2 3.4-7.5 7.5-7.5.5 0 1 0 1.5.1 1.2-.7 2.6-1.2 4.1-1.2z"/><path id="Shape_14_" class="st2" d="M273 76.3c1.5 0 2.8.3 4 .7h.1c4.1 0 7.4 2 7.6 4.5v.2c0 .7-.2 1.3-.7 1.9.8.8 1.3 1.6 1.3 2.6v.2c-.2 2.5-3.5 4.5-7.6 4.5-.4 0-.8 0-1.2-.1-1.2.5-2.6.8-4.1.8-1.5 0-2.9-.3-4-.7h-.4c-4.2 0-7.6-2.1-7.6-4.7 0-.7.2-1.3.7-1.9-.8-.7-1.3-1.6-1.3-2.6 0-2.6 3.4-4.7 7.6-4.7.5 0 1 0 1.5.1 1.1-.5 2.6-.8 4.1-.8z"/><path id="Shape_15_" class="st8" d="M275 77.8c1.5 0 2.8.3 4 .7h.1c4.1 0 7.4 2 7.6 4.5v.2c0 .7-.2 1.3-.7 1.9.8.8 1.3 1.6 1.3 2.6v.2c-.2 2.5-3.5 4.5-7.6 4.5-.4 0-.8 0-1.2-.1-1.2.5-2.6.8-4.1.8-1.5 0-2.9-.3-4-.7h-.4c-4.2 0-7.6-2.1-7.6-4.7 0-.7.2-1.3.7-1.9-.8-.7-1.3-1.6-1.3-2.6 0-2.6 3.4-4.7 7.6-4.7.5 0 1 0 1.5.1 1-.5 2.5-.8 4.1-.8z"/><path id="Shape_16_" class="st2" d="M81.7 46.2c1.5 0 2.8.3 4 .7h.1c4.1 0 7.4 2 7.6 4.5v.2c0 .7-.2 1.3-.7 1.9.8.8 1.3 1.6 1.3 2.6v.2c-.2 2.5-3.5 4.5-7.6 4.5-.4 0-.8 0-1.2-.1-1.2.5-2.6.8-4.1.8-1.5 0-2.9-.3-4-.7h-.4c-4.2 0-7.6-2.1-7.6-4.7 0-.7.2-1.3.7-1.9-.8-.7-1.3-1.6-1.3-2.6 0-2.6 3.4-4.7 7.6-4.7.5 0 1 0 1.5.1 1.1-.6 2.6-.8 4.1-.8z"/><path id="Shape_17_" class="st3" d="M83.7 47.7c1.5 0 2.8.3 4 .7h.1c4.1 0 7.4 2 7.6 4.5v.2c0 .7-.2 1.3-.7 1.9.8.8 1.3 1.6 1.3 2.6v.2c-.2 2.5-3.5 4.5-7.6 4.5-.4 0-.8 0-1.2-.1-1.2.6-2.6.8-4.2.8-1.5 0-2.9-.3-4-.7h-.4c-4.2 0-7.6-2.1-7.6-4.7 0-.7.2-1.3.7-1.9-.8-.7-1.3-1.6-1.3-2.6 0-2.6 3.4-4.7 7.6-4.7.5 0 1 0 1.5.1 1.2-.5 2.6-.8 4.2-.8z"/></svg>