<svg width="24" height="24" viewBox="0 0 24 24" xmlns="http://www.w3.org/2000/svg"><title>instagram-with-circle</title><path d="M15.75 12a3.75 3.75 0 1 1-7.5 0c0-.214.023-.422.061-.625H7v4.996c0 .348.281.629.629.629h8.743a.628.628 0 0 0 .628-.629v-4.996h-1.311c.038.203.061.411.061.625zM12 14.5a2.5 2.5 0 0 0 0-5 2.5 2.5 0 0 0 0 5zm3-5.125h1.499A.376.376 0 0 0 16.875 9V7.501a.377.377 0 0 0-.376-.376H15a.377.377 0 0 0-.376.376V9c.001.206.17.375.376.375zM12 0C5.372 0 0 5.372 0 12s5.372 12 12 12 12-5.372 12-12S18.628 0 12 0zm6.25 16.861c0 .764-.625 1.389-1.389 1.389H7.14a1.393 1.393 0 0 1-1.389-1.389V7.14c0-.764.625-1.389 1.389-1.389h9.722c.764 0 1.389.625 1.389 1.389v9.722z" fill-rule="nonzero" fill="#000"/></svg>