<svg width="24" height="24" viewBox="0 0 24 24" xmlns="http://www.w3.org/2000/svg"><title>linkedin-with-circle</title><path d="M12 .48C5.638.48.48 5.638.48 12c0 6.362 5.158 11.52 11.52 11.52 6.362 0 11.52-5.158 11.52-11.52C23.52 5.638 18.362.48 12 .48zM9.18 16.775H6.847V9.268H9.18v7.507zM8 8.346c-.738 0-1.214-.522-1.214-1.168 0-.658.49-1.165 1.243-1.165.753 0 1.213.507 1.228 1.165 0 .646-.475 1.168-1.258 1.168zm9.7 8.429h-2.333v-4.16c0-.969-.338-1.627-1.182-1.627-.644 0-1.027.446-1.196.874-.063.152-.078.368-.078.583v4.329h-2.334v-5.112c0-.938-.03-1.721-.061-2.396h2.026l.107 1.043h.047c.307-.49 1.06-1.212 2.318-1.212 1.535 0 2.686 1.029 2.686 3.239v4.439z" fill-rule="nonzero" fill="#000"/></svg>