<svg width="24" height="24" viewBox="0 0 24 24" xmlns="http://www.w3.org/2000/svg"><title>twitter-with-circle</title><path d="M12 .48C5.638.48.48 5.638.48 12c0 6.362 5.158 11.52 11.52 11.52 6.362 0 11.52-5.158 11.52-11.52C23.52 5.638 18.362.48 12 .48zm4.686 9.437c.005.098.006.197.006.293 0 3-2.281 6.457-6.455 6.457a6.402 6.402 0 0 1-3.477-1.02c.176.021.357.03.54.03a4.544 4.544 0 0 0 2.818-.971A2.274 2.274 0 0 1 8 13.132a2.28 2.28 0 0 0 1.024-.04 2.271 2.271 0 0 1-1.82-2.225v-.027c.305.169.656.272 1.028.284a2.268 2.268 0 0 1-.702-3.031 6.451 6.451 0 0 0 4.676 2.372 2.27 2.27 0 0 1 3.866-2.07 4.557 4.557 0 0 0 1.44-.55 2.28 2.28 0 0 1-.997 1.256c.46-.057.897-.178 1.304-.359a4.6 4.6 0 0 1-1.132 1.175z" fill-rule="nonzero" fill="#000"/></svg>