<?xml version="1.0" encoding="UTF-8" standalone="no"?>
<svg width="24px" height="24px" viewBox="0 0 24 24" version="1.1" xmlns="http://www.w3.org/2000/svg" xmlns:xlink="http://www.w3.org/1999/xlink">
    <!-- Generator: Sketch 46.2 (44496) - http://www.bohemiancoding.com/sketch -->
    <title>instagram-with-circle</title>
    <desc>Created with Sketch.</desc>
    <defs></defs>
    <g id="Page-1" stroke="none" stroke-width="1" fill="none" fill-rule="evenodd">
        <g id="instagram-with-circle" fill-rule="nonzero" fill="#000000">
            <path d="M15.75,12 C15.75,14.07125 14.07125,15.75 12,15.75 C9.92875,15.75 8.25,14.07125 8.25,12 C8.25,11.78625 8.2725,11.5775 8.31125,11.375 L7,11.375 L7,16.37125 C7,16.71875 7.28125,17 7.62875,17 L16.3725,17 C16.71875,17 17,16.71875 17,16.37125 L17,11.375 L15.68875,11.375 C15.7275,11.5775 15.75,11.78625 15.75,12 Z M12,14.5 C13.38,14.5 14.5,13.38 14.5,12 C14.5,10.62 13.38,9.5 12,9.5 C10.62,9.5 9.5,10.62 9.5,12 C9.5,13.38 10.62,14.5 12,14.5 Z M15,9.375 L16.49875,9.375 C16.70625,9.375 16.875,9.20625 16.875,9 L16.875,7.50125 C16.875,7.29375 16.70625,7.125 16.49875,7.125 L15,7.125 C14.7925,7.125 14.62375,7.29375 14.62375,7.50125 L14.62375,9 C14.625,9.20625 14.79375,9.375 15,9.375 Z M12,0 C5.3725,0 0,5.3725 0,12 C0,18.6275 5.3725,24 12,24 C18.6275,24 24,18.6275 24,12 C24,5.3725 18.6275,0 12,0 Z M18.25,16.86125 C18.25,17.625 17.625,18.25 16.86125,18.25 L7.13875,18.25 C6.375,18.25 5.75,17.625 5.75,16.86125 L5.75,7.13875 C5.75,6.375 6.375,5.75 7.13875,5.75 L16.86125,5.75 C17.625,5.75 18.25,6.375 18.25,7.13875 L18.25,16.86125 Z" id="Shape"></path>
        </g>
    </g>
</svg>