<?xml version="1.0" encoding="UTF-8" standalone="no"?>
<svg width="24px" height="24px" viewBox="0 0 24 24" version="1.1" xmlns="http://www.w3.org/2000/svg" xmlns:xlink="http://www.w3.org/1999/xlink">
    <!-- Generator: Sketch 46.2 (44496) - http://www.bohemiancoding.com/sketch -->
    <title>linkedin-with-circle</title>
    <desc>Created with Sketch.</desc>
    <defs></defs>
    <g id="Page-1" stroke="none" stroke-width="1" fill="none" fill-rule="evenodd">
        <g id="linkedin-with-circle" fill-rule="nonzero" fill="#000000">
            <path d="M12,0.48 C5.6376,0.48 0.48,5.6376 0.48,12 C0.48,18.3624 5.6376,23.52 12,23.52 C18.3624,23.52 23.52,18.3624 23.52,12 C23.52,5.6376 18.3624,0.48 12,0.48 Z M9.18,16.7748 L6.8472,16.7748 L6.8472,9.2676 L9.18,9.2676 L9.18,16.7748 Z M7.9992,8.346 C7.2624,8.346 6.786,7.824 6.786,7.1784 C6.786,6.5196 7.2768,6.0132 8.0292,6.0132 C8.7816,6.0132 9.2424,6.5196 9.2568,7.1784 C9.2568,7.824 8.7816,8.346 7.9992,8.346 Z M17.7,16.7748 L15.3672,16.7748 L15.3672,12.6144 C15.3672,11.646 15.0288,10.9884 14.1852,10.9884 C13.5408,10.9884 13.158,11.4336 12.9888,11.862 C12.9264,12.0144 12.9108,12.2304 12.9108,12.4452 L12.9108,16.7736 L10.5768,16.7736 L10.5768,11.6616 C10.5768,10.7244 10.5468,9.9408 10.5156,9.2664 L12.5424,9.2664 L12.6492,10.3092 L12.696,10.3092 C13.0032,9.8196 13.7556,9.0972 15.0144,9.0972 C16.5492,9.0972 17.7,10.1256 17.7,12.336 L17.7,16.7748 L17.7,16.7748 Z" id="Shape"></path>
        </g>
    </g>
</svg>