<?xml version="1.0" encoding="UTF-8" standalone="no"?>
<svg width="172px" height="255px" viewBox="0 0 172 255" version="1.1" xmlns="http://www.w3.org/2000/svg" xmlns:xlink="http://www.w3.org/1999/xlink">
    <!-- Generator: Sketch 46.2 (44496) - http://www.bohemiancoding.com/sketch -->
    <title>Page 1</title>
    <desc>Created with Sketch.</desc>
    <defs>
        <polygon id="path-1" points="166.80799 0.992 0 0.992 0 141.8065 166.80799 141.8065 166.80799 0.992"></polygon>
        <path d="M15.633,36.67 C21.238,31.24 22.039,30.279 28.632,25.051 L28.632,20.85 C20.645,16.493 27.599,19.945 14.572,3.751 L1.235,0.935 C1.235,0.935 -4.37,15.237 15.633,36.67 Z" id="path-3"></path>
        <path d="M14.887,2.821 C1.861,19.014 8.814,15.563 0.827,19.92 L0.827,24.121 C7.421,29.349 8.221,30.309 13.827,35.74 C33.828,14.306 28.224,0.005 28.224,0.005 L14.887,2.821 Z" id="path-5"></path>
    </defs>
    <g id="Page-1" stroke="none" stroke-width="1" fill="none" fill-rule="evenodd">
        <g transform="translate(0.000000, -1.000000)">
            <g id="Group-10" transform="translate(0.000000, 0.008000)">
                <path d="M22.7569,240.958 L21.1499,250.129 L168.8949,249.187 C168.8949,249.187 135.4999,136.245 117.2549,118.296 C99.0089,100.347 29.5339,181.205 22.7569,240.958" id="Fill-1" fill="#FFFFFF"></path>
                <path d="M110.6207,117.7549 C109.0427,117.7549 107.2507,118.1089 105.2497,118.8169 C79.7557,127.8439 30.3547,191.7179 24.7447,241.1839 L24.7267,241.3039 L23.5337,248.1129 L166.2127,247.2029 C161.1317,230.3689 132.0217,135.6299 115.8517,119.7219 C114.5187,118.4109 112.7687,117.7549 110.6207,117.7549 L110.6207,117.7549 Z M18.7657,252.1449 L20.7767,240.6729 C26.6717,188.9769 76.9267,124.6029 103.9147,115.0459 C111.7467,112.2719 116.2557,114.5079 118.6567,116.8699 C137.0587,134.9739 169.4427,243.9869 170.8127,248.6189 L171.5667,251.1699 L18.7657,252.1449 Z" id="Fill-3" fill="#000000"></path>
                <path d="M50.7447,118.2959 C62.7827,142.2879 87.4377,139.7029 87.4377,139.7029 C99.4737,141.4079 104.9547,121.0299 117.2547,118.2959 C132.8107,114.8379 151.5427,95.9989 148.6737,83.2999 C181.4047,23.0219 153.9477,3.5729 153.9477,3.5729 C140.5727,16.2589 121.4017,37.1929 117.2547,42.7049 C108.2597,35.8699 96.2197,34.7099 87.5657,34.7099 C87.4107,34.7099 87.2007,34.7329 87.0317,34.7359 L87.0317,34.7629 C77.7277,34.8709 62.1037,37.3999 60.1617,41.5079 C42.6327,20.4259 21.9987,27.1669 8.6237,14.4809 C8.6237,14.4809 -14.6063,25.2789 25.8807,93.3989 C19.9907,105.5279 50.7447,118.2959 50.7447,118.2959" id="Fill-5" fill="#FFFFFF"></path>
                <g id="Group-9">
                    <mask id="mask-2" fill="white">
                        <use xlink:href="#path-1"></use>
                    </mask>
                    <g id="Clip-8"></g>
                    <path d="M87.4742,137.6885 L87.7182,137.7225 C93.0782,138.4795 97.0742,133.7235 101.6962,128.2105 C106.0062,123.0715 110.4632,117.7565 116.8212,116.3435 C126.2452,114.2485 137.3552,105.9955 143.2342,96.7195 C146.3302,91.8335 147.5362,87.3455 146.7222,83.7415 L146.5572,83.0075 L146.9152,82.3455 C156.0102,65.5975 165.9592,41.4705 161.7132,21.6365 C159.8862,13.1005 155.9852,8.2795 153.9982,6.2905 C141.0612,18.7305 122.9532,38.4595 118.8522,43.9075 L117.6442,45.5135 L116.0442,44.2975 C109.6452,39.4355 100.4902,36.8875 88.8192,36.7185 L87.0552,36.7625 C74.6012,36.9075 62.9672,40.2545 61.9702,42.3625 L60.6302,45.1985 L58.6242,42.7865 C48.9892,31.1995 38.5292,28.4135 28.4122,25.7185 C21.1702,23.7895 14.3032,21.9595 8.4732,17.0295 C7.4762,17.9325 5.9512,19.7815 4.9582,23.2005 C2.1922,32.7245 3.8742,52.4575 27.6002,92.3765 L28.1502,93.3025 L27.6802,94.2715 C26.9892,95.6955 26.9532,97.1775 27.5702,98.8055 C30.4102,106.2965 45.8152,114.0815 51.5122,116.4495 L52.1982,116.7345 L52.5322,117.3995 C63.8192,139.8935 86.9972,137.7375 87.2292,137.7135 L87.4742,137.6885 Z M88.8822,141.8065 C88.3932,141.8065 87.8932,141.7765 87.3812,141.7125 C84.6342,141.9015 61.2342,142.7595 49.2932,119.8505 C45.4762,118.1875 27.5102,109.9235 23.8302,100.2255 C22.9572,97.9245 22.8972,95.6865 23.6502,93.5565 C-0.5458,52.5915 -1.9128,31.8775 1.2312,21.7015 C3.3322,14.9025 7.3312,12.8755 7.7802,12.6675 L9.0132,12.0935 L10.0002,13.0295 C15.3432,18.0975 21.8772,19.8375 29.4422,21.8535 C39.1782,24.4465 50.1522,27.3705 60.2022,38.5005 C61.7782,37.3315 64.7282,35.9215 70.4102,34.6815 C74.9122,33.6985 80.3392,33.0135 85.0322,32.8165 L85.0322,32.7965 L87.1532,32.7275 C87.2992,32.7175 87.4442,32.7095 87.5662,32.7095 C99.8012,32.7095 109.6452,35.1515 116.8652,39.9725 C122.8402,32.6555 140.4312,13.6365 152.5722,2.1225 L153.7632,0.9915 L155.1042,1.9415 C156.2802,2.7745 183.4362,22.9805 150.7732,83.6215 C151.5222,88.1215 150.0922,93.3705 146.6132,98.8605 C140.2182,108.9495 128.0532,117.9445 117.6882,120.2485 C112.6572,121.3675 108.6432,126.1535 104.7612,130.7815 C100.2092,136.2095 95.5152,141.8065 88.8822,141.8065 L88.8822,141.8065 Z" id="Fill-7" fill="#000000" mask="url(#mask-2)"></path>
                </g>
            </g>
            <g id="Group-83" transform="translate(14.000000, 33.008000)">
                <mask id="mask-4" fill="white">
                    <use xlink:href="#path-3"></use>
                </mask>
                <g id="Clip-12"></g>
                <polygon id="Fill-11" fill="#F1AAC2" mask="url(#mask-4)" points="-4.37 36.67 -0.307 36.67 -0.307 0.934 -4.37 0.934"></polygon>
                <polygon id="Fill-13" fill="#F1AAC2" mask="url(#mask-4)" points="-0.306 36.67 0.113 36.67 0.113 0.934 -0.306 0.934"></polygon>
                <polygon id="Fill-14" fill="#F1A9C1" mask="url(#mask-4)" points="0.113 36.67 0.532 36.67 0.532 0.934 0.113 0.934"></polygon>
                <polygon id="Fill-15" fill="#F1A8C1" mask="url(#mask-4)" points="0.532 36.67 0.951 36.67 0.951 0.934 0.532 0.934"></polygon>
                <polygon id="Fill-16" fill="#F0A7C0" mask="url(#mask-4)" points="0.951 36.67 1.37 36.67 1.37 0.934 0.951 0.934"></polygon>
                <polygon id="Fill-17" fill="#F0A6BF" mask="url(#mask-4)" points="1.371 36.67 1.79 36.67 1.79 0.934 1.371 0.934"></polygon>
                <polygon id="Fill-18" fill="#F0A5BE" mask="url(#mask-4)" points="1.79 36.67 2.209 36.67 2.209 0.934 1.79 0.934"></polygon>
                <polygon id="Fill-19" fill="#F0A4BE" mask="url(#mask-4)" points="2.209 36.67 2.628 36.67 2.628 0.934 2.209 0.934"></polygon>
                <polygon id="Fill-20" fill="#F0A3BD" mask="url(#mask-4)" points="2.628 36.67 3.047 36.67 3.047 0.934 2.628 0.934"></polygon>
                <polygon id="Fill-21" fill="#F0A2BC" mask="url(#mask-4)" points="3.047 36.67 3.466 36.67 3.466 0.934 3.047 0.934"></polygon>
                <polygon id="Fill-22" fill="#EFA1BB" mask="url(#mask-4)" points="3.466 36.67 3.885 36.67 3.885 0.934 3.466 0.934"></polygon>
                <polygon id="Fill-23" fill="#EFA0BB" mask="url(#mask-4)" points="3.886 36.67 4.305 36.67 4.305 0.934 3.886 0.934"></polygon>
                <polygon id="Fill-24" fill="#EF9FBA" mask="url(#mask-4)" points="4.305 36.67 4.724 36.67 4.724 0.934 4.305 0.934"></polygon>
                <polygon id="Fill-25" fill="#EF9EB9" mask="url(#mask-4)" points="4.724 36.67 5.143 36.67 5.143 0.934 4.724 0.934"></polygon>
                <polygon id="Fill-26" fill="#EF9DB9" mask="url(#mask-4)" points="5.143 36.67 5.562 36.67 5.562 0.934 5.143 0.934"></polygon>
                <polygon id="Fill-27" fill="#EF9CB8" mask="url(#mask-4)" points="5.563 36.67 5.982 36.67 5.982 0.934 5.563 0.934"></polygon>
                <polygon id="Fill-28" fill="#EE9BB7" mask="url(#mask-4)" points="5.981 36.67 6.4 36.67 6.4 0.934 5.981 0.934"></polygon>
                <polygon id="Fill-29" fill="#EE9AB6" mask="url(#mask-4)" points="6.401 36.67 6.82 36.67 6.82 0.934 6.401 0.934"></polygon>
                <polygon id="Fill-30" fill="#EE99B6" mask="url(#mask-4)" points="6.82 36.67 7.239 36.67 7.239 0.934 6.82 0.934"></polygon>
                <polygon id="Fill-31" fill="#EE98B5" mask="url(#mask-4)" points="7.239 36.67 7.658 36.67 7.658 0.934 7.239 0.934"></polygon>
                <polygon id="Fill-32" fill="#EE97B4" mask="url(#mask-4)" points="7.659 36.67 8.078 36.67 8.078 0.934 7.659 0.934"></polygon>
                <polygon id="Fill-33" fill="#EE96B3" mask="url(#mask-4)" points="8.078 36.67 8.497 36.67 8.497 0.934 8.078 0.934"></polygon>
                <polygon id="Fill-34" fill="#ED95B3" mask="url(#mask-4)" points="8.497 36.67 8.916 36.67 8.916 0.934 8.497 0.934"></polygon>
                <polygon id="Fill-35" fill="#ED94B2" mask="url(#mask-4)" points="8.916 36.67 9.335 36.67 9.335 0.934 8.916 0.934"></polygon>
                <polygon id="Fill-36" fill="#ED93B1" mask="url(#mask-4)" points="9.335 36.67 9.754 36.67 9.754 0.934 9.335 0.934"></polygon>
                <polygon id="Fill-37" fill="#ED92B1" mask="url(#mask-4)" points="9.754 36.67 10.173 36.67 10.173 0.934 9.754 0.934"></polygon>
                <polygon id="Fill-38" fill="#ED91B0" mask="url(#mask-4)" points="10.174 36.67 10.593 36.67 10.593 0.934 10.174 0.934"></polygon>
                <polygon id="Fill-39" fill="#ED90AF" mask="url(#mask-4)" points="10.593 36.67 11.012 36.67 11.012 0.934 10.593 0.934"></polygon>
                <polygon id="Fill-40" fill="#EC8FAE" mask="url(#mask-4)" points="11.012 36.67 11.431 36.67 11.431 0.934 11.012 0.934"></polygon>
                <polygon id="Fill-41" fill="#EC8EAE" mask="url(#mask-4)" points="11.431 36.67 11.85 36.67 11.85 0.934 11.431 0.934"></polygon>
                <polygon id="Fill-42" fill="#EC8DAD" mask="url(#mask-4)" points="11.851 36.67 12.27 36.67 12.27 0.934 11.851 0.934"></polygon>
                <polygon id="Fill-43" fill="#EC8CAC" mask="url(#mask-4)" points="12.27 36.67 12.689 36.67 12.689 0.934 12.27 0.934"></polygon>
                <polygon id="Fill-44" fill="#EC8BAB" mask="url(#mask-4)" points="12.689 36.67 13.108 36.67 13.108 0.934 12.689 0.934"></polygon>
                <polygon id="Fill-45" fill="#EC8AAB" mask="url(#mask-4)" points="13.108 36.67 13.527 36.67 13.527 0.934 13.108 0.934"></polygon>
                <polygon id="Fill-46" fill="#EB89AA" mask="url(#mask-4)" points="13.527 36.67 13.946 36.67 13.946 0.934 13.527 0.934"></polygon>
                <polygon id="Fill-47" fill="#EB88A9" mask="url(#mask-4)" points="13.946 36.67 14.365 36.67 14.365 0.934 13.946 0.934"></polygon>
                <polygon id="Fill-48" fill="#EB87A9" mask="url(#mask-4)" points="14.366 36.67 14.785 36.67 14.785 0.934 14.366 0.934"></polygon>
                <polygon id="Fill-49" fill="#EB85A8" mask="url(#mask-4)" points="14.785 36.67 15.204 36.67 15.204 0.934 14.785 0.934"></polygon>
                <polygon id="Fill-50" fill="#EB84A7" mask="url(#mask-4)" points="15.204 36.67 15.623 36.67 15.623 0.934 15.204 0.934"></polygon>
                <polygon id="Fill-51" fill="#EA83A6" mask="url(#mask-4)" points="15.623 36.67 16.042 36.67 16.042 0.934 15.623 0.934"></polygon>
                <polygon id="Fill-52" fill="#EA82A6" mask="url(#mask-4)" points="16.042 36.67 16.461 36.67 16.461 0.934 16.042 0.934"></polygon>
                <polygon id="Fill-53" fill="#EA81A5" mask="url(#mask-4)" points="16.461 36.67 16.88 36.67 16.88 0.934 16.461 0.934"></polygon>
                <polygon id="Fill-54" fill="#EA80A4" mask="url(#mask-4)" points="16.881 36.67 17.3 36.67 17.3 0.934 16.881 0.934"></polygon>
                <polygon id="Fill-55" fill="#EA7FA3" mask="url(#mask-4)" points="17.3 36.67 17.719 36.67 17.719 0.934 17.3 0.934"></polygon>
                <polygon id="Fill-56" fill="#EA7EA3" mask="url(#mask-4)" points="17.719 36.67 18.138 36.67 18.138 0.934 17.719 0.934"></polygon>
                <polygon id="Fill-57" fill="#E97DA2" mask="url(#mask-4)" points="18.138 36.67 18.557 36.67 18.557 0.934 18.138 0.934"></polygon>
                <polygon id="Fill-58" fill="#E97CA1" mask="url(#mask-4)" points="18.558 36.67 18.977 36.67 18.977 0.934 18.558 0.934"></polygon>
                <polygon id="Fill-59" fill="#E97BA0" mask="url(#mask-4)" points="18.977 36.67 19.396 36.67 19.396 0.934 18.977 0.934"></polygon>
                <polygon id="Fill-60" fill="#E97AA0" mask="url(#mask-4)" points="19.396 36.67 19.815 36.67 19.815 0.934 19.396 0.934"></polygon>
                <polygon id="Fill-61" fill="#E9799F" mask="url(#mask-4)" points="19.815 36.67 20.234 36.67 20.234 0.934 19.815 0.934"></polygon>
                <polygon id="Fill-62" fill="#E9789E" mask="url(#mask-4)" points="20.234 36.67 20.653 36.67 20.653 0.934 20.234 0.934"></polygon>
                <polygon id="Fill-63" fill="#E8779E" mask="url(#mask-4)" points="20.653 36.67 21.072 36.67 21.072 0.934 20.653 0.934"></polygon>
                <polygon id="Fill-64" fill="#E8769D" mask="url(#mask-4)" points="21.073 36.67 21.492 36.67 21.492 0.934 21.073 0.934"></polygon>
                <polygon id="Fill-65" fill="#E8759C" mask="url(#mask-4)" points="21.492 36.67 21.911 36.67 21.911 0.934 21.492 0.934"></polygon>
                <polygon id="Fill-66" fill="#E8749B" mask="url(#mask-4)" points="21.911 36.67 22.33 36.67 22.33 0.934 21.911 0.934"></polygon>
                <polygon id="Fill-67" fill="#E8739B" mask="url(#mask-4)" points="22.33 36.67 22.749 36.67 22.749 0.934 22.33 0.934"></polygon>
                <polygon id="Fill-68" fill="#E8729A" mask="url(#mask-4)" points="22.75 36.67 23.169 36.67 23.169 0.934 22.75 0.934"></polygon>
                <polygon id="Fill-69" fill="#E77199" mask="url(#mask-4)" points="23.169 36.67 23.588 36.67 23.588 0.934 23.169 0.934"></polygon>
                <polygon id="Fill-70" fill="#E77098" mask="url(#mask-4)" points="23.588 36.67 24.007 36.67 24.007 0.934 23.588 0.934"></polygon>
                <polygon id="Fill-71" fill="#E76F98" mask="url(#mask-4)" points="24.007 36.67 24.426 36.67 24.426 0.934 24.007 0.934"></polygon>
                <polygon id="Fill-72" fill="#E76E97" mask="url(#mask-4)" points="24.426 36.67 24.845 36.67 24.845 0.934 24.426 0.934"></polygon>
                <polygon id="Fill-73" fill="#E76D96" mask="url(#mask-4)" points="24.846 36.67 25.265 36.67 25.265 0.934 24.846 0.934"></polygon>
                <polygon id="Fill-74" fill="#E76C96" mask="url(#mask-4)" points="25.265 36.67 25.684 36.67 25.684 0.934 25.265 0.934"></polygon>
                <polygon id="Fill-75" fill="#E66B95" mask="url(#mask-4)" points="25.684 36.67 26.103 36.67 26.103 0.934 25.684 0.934"></polygon>
                <polygon id="Fill-76" fill="#E66A94" mask="url(#mask-4)" points="26.103 36.67 26.522 36.67 26.522 0.934 26.103 0.934"></polygon>
                <polygon id="Fill-77" fill="#E66993" mask="url(#mask-4)" points="26.522 36.67 26.941 36.67 26.941 0.934 26.522 0.934"></polygon>
                <polygon id="Fill-78" fill="#E66893" mask="url(#mask-4)" points="26.941 36.67 27.36 36.67 27.36 0.934 26.941 0.934"></polygon>
                <polygon id="Fill-79" fill="#E66792" mask="url(#mask-4)" points="27.361 36.67 27.78 36.67 27.78 0.934 27.361 0.934"></polygon>
                <polygon id="Fill-80" fill="#E66691" mask="url(#mask-4)" points="27.78 36.67 28.199 36.67 28.199 0.934 27.78 0.934"></polygon>
                <polygon id="Fill-81" fill="#E56590" mask="url(#mask-4)" points="28.199 36.67 28.618 36.67 28.618 0.934 28.199 0.934"></polygon>
                <polygon id="Fill-82" fill="#E56490" mask="url(#mask-4)" points="28.618 36.671 28.632 36.671 28.632 0.935 28.618 0.935"></polygon>
            </g>
            <g id="Group-122" transform="translate(6.000000, 28.008000)">
                <path d="M9.6998,6.7192 C8.9878,9.4672 6.8688,22.4432 23.6578,40.7092 L25.1468,39.2622 C29.0618,35.4492 30.4198,34.1272 35.9608,29.7272 L35.9608,26.2482 C32.0198,24.0912 31.8158,23.8292 30.7508,21.7692 C29.8608,20.0452 28.2098,16.8482 22.1988,9.3582 L9.6998,6.7192 Z M23.6088,42.6292 L23.1408,42.1282 C3.0808,20.6322 8.3748,6.2892 8.6098,5.6892 L8.8178,5.1592 L22.9458,8.1422 L23.0958,8.3292 C29.3128,16.0592 31.0248,19.3722 31.9448,21.1532 C32.8968,22.9952 32.9338,23.0672 36.9538,25.2602 L37.3048,25.4502 L37.3048,30.3762 L37.0498,30.5772 C31.3478,35.0982 30.0218,36.3892 26.0838,40.2242 L23.6088,42.6292 Z" id="Fill-84" fill="#000000"></path>
                <path d="M62.4112,94.8848 L57.5342,92.6308 C59.8952,87.5228 68.3752,84.6708 82.7392,84.1528 C83.8542,84.1128 84.8282,83.9268 85.7712,83.7478 C89.4342,83.0498 92.4212,82.8718 97.4642,86.9648 L94.0782,91.1368 C90.5842,88.3008 89.3102,88.5448 86.7762,89.0268 C85.6882,89.2338 84.4562,89.4678 82.9322,89.5228 C69.3902,90.0108 63.4142,92.7158 62.4112,94.8848" id="Fill-86" fill="#000000"></path>
                <polygon id="Fill-88" fill="#000000" points="80.1568 87.0391 78.7598 68.4191 84.1168 68.0171 85.5138 86.6371"></polygon>
                <path d="M76.1959,37.7402 C76.1959,37.7402 71.2579,57.6042 68.5649,62.6542 C68.5649,62.6542 59.6359,65.6842 68.3019,71.1252 C79.0169,77.8532 88.3499,82.5302 91.5769,61.6662 C92.1499,57.9562 83.8089,42.6932 83.4409,41.6022 L76.1959,37.7402 Z" id="Fill-90" fill="#000000"></path>
                <path d="M76.4429,38.2969 C75.6639,41.3919 71.3809,58.1689 68.8959,62.8309 L68.8259,62.9619 L68.6849,63.0089 C68.6499,63.0219 65.1529,64.2359 64.9059,66.3509 C64.7479,67.7109 65.9569,69.2109 68.5009,70.8079 C74.4879,74.5679 80.2079,77.7879 84.3979,75.8729 C87.7299,74.3519 89.9569,69.6859 91.2069,61.6089 C91.6379,58.8119 86.4759,48.5479 84.2719,44.1659 C83.6419,42.9139 83.2879,42.2059 83.1429,41.8679 L76.4429,38.2969 Z M81.6459,77.1919 C77.6589,77.1919 72.9599,74.4929 68.1029,71.4429 C65.2909,69.6779 63.9649,67.9349 64.1609,66.2619 C64.4349,63.9289 67.5739,62.6229 68.2999,62.3509 C70.9549,57.2009 75.7829,37.8459 75.8319,37.6499 L75.9479,37.1829 L83.7489,41.3409 L83.7969,41.4819 C83.8669,41.6909 84.3409,42.6339 84.9419,43.8279 C87.3679,48.6519 92.4169,58.6889 91.9479,61.7239 C90.6569,70.0689 88.2889,74.9209 84.7099,76.5559 C83.7479,76.9949 82.7219,77.1919 81.6459,77.1919 L81.6459,77.1919 Z" id="Fill-92" fill="#000000"></path>
                <polygon id="Fill-94" fill="#000000" points="0.1602 78.0269 0.0892 77.0299 65.1282 72.3999 65.2002 73.3969"></polygon>
                <polygon id="Fill-96" fill="#000000" points="65.1031 69.394 8.0401 62.395 8.1621 61.403 65.2251 68.402"></polygon>
                <polygon id="Fill-98" fill="#000000" points="5.3399 93.4746 5.1149 92.4996 72.6549 76.8986 72.8799 77.8726"></polygon>
                <polygon id="Fill-100" fill="#000000" points="93.0601 72.8447 92.9581 71.8497 152.5251 65.7147 152.6261 66.7097"></polygon>
                <polygon id="Fill-102" fill="#000000" points="156.9976 84.0913 90.1916 76.7433 90.3016 75.7493 157.1066 83.0973"></polygon>
                <path d="M51.0177,33.0151 C50.9417,29.5701 36.2107,2.9411 36.6327,0.2321 C36.8847,-1.3869 52.7927,12.2441 54.0177,11.4931 C86.2617,-8.2739 108.8257,16.3581 111.2547,14.7051 L81.4377,33.0151 L51.0177,33.0151 Z" id="Fill-104" fill="#000000"></path>
                <path d="M90.2467,53.2671 C90.2467,53.2671 93.2077,29.5531 108.3977,31.5501 C123.5887,33.5471 122.4337,40.4641 122.4337,40.4641 C122.4337,40.4641 128.5547,69.7641 90.2467,53.2671" id="Fill-106" fill="#FFFFFF"></path>
                <path d="M91.9127,52.3438 C104.1247,57.4348 112.9617,58.1738 117.5047,54.4688 C122.8227,50.1368 120.9837,40.8628 120.9647,40.7688 L120.9077,40.4948 L120.9537,40.2178 C120.9547,40.1978 121.4227,34.7748 108.2027,33.0368 C105.1977,32.6438 102.6117,33.3228 100.2877,35.1158 C94.6337,39.4808 92.4927,49.0808 91.9127,52.3438 M109.6167,59.7978 C104.2997,59.7978 97.6287,58.0788 89.6527,54.6448 L88.6187,54.1988 L88.7587,53.0808 C88.8307,52.5008 90.6237,38.7938 98.4477,32.7468 C101.3967,30.4688 104.8127,29.5658 108.5937,30.0628 C115.5317,30.9748 120.2177,33.0138 122.5197,36.1238 C123.9007,37.9898 123.9847,39.6828 123.9457,40.3868 C124.2467,42.0398 125.6797,51.6638 119.4117,56.7848 C116.9527,58.7938 113.6807,59.7978 109.6167,59.7978" id="Fill-108" fill="#000000"></path>
                <path d="M113.0201,46.6709 C113.0201,49.8549 110.4391,52.4359 107.2551,52.4359 C104.0711,52.4359 101.4901,49.8549 101.4901,46.6709 C101.4901,43.4859 104.0711,40.9049 107.2551,40.9049 C110.4401,40.9049 113.0201,43.4859 113.0201,46.6709" id="Fill-110" fill="#000000"></path>
                <path d="M107.2554,42.6436 C105.0344,42.6436 103.2284,44.4506 103.2284,46.6706 C103.2284,48.8916 105.0344,50.6976 107.2554,50.6976 C109.4754,50.6976 111.2814,48.8916 111.2814,46.6706 C111.2814,44.4506 109.4754,42.6436 107.2554,42.6436 M107.2554,54.1736 C103.1174,54.1736 99.7514,50.8086 99.7514,46.6706 C99.7514,42.5336 103.1174,39.1666 107.2554,39.1666 C111.3924,39.1666 114.7584,42.5336 114.7584,46.6706 C114.7584,50.8086 111.3924,54.1736 107.2554,54.1736" id="Fill-112" fill="#000000"></path>
                <path d="M69.3082,53.959 C69.3082,53.959 65.0142,34.98 49.7592,37.013 C34.5042,39.047 36.9842,40.923 36.9842,40.923 C36.9842,40.923 30.8372,70.755 69.3082,53.959" id="Fill-114" fill="#FFFFFF"></path>
                <path d="M38.5059,40.9673 L38.4529,41.2263 C38.4339,41.3203 36.5669,50.8683 42.0079,55.2673 C46.5739,58.9603 55.3779,58.2053 67.5129,53.0963 C67.0099,51.4603 65.9029,48.3933 63.9609,45.4883 C60.3559,40.0933 55.6379,37.7453 49.9579,38.5003 C42.0189,39.5583 39.3589,40.5273 38.5059,40.9673 M49.8559,60.5813 C45.8249,60.5813 42.5699,59.5853 40.1099,57.5913 C34.0329,52.6643 35.0449,43.4993 35.4189,41.1603 C35.3219,40.8453 35.3009,40.4893 35.3989,40.1153 C35.7559,38.7613 37.1739,37.1773 49.5609,35.5263 C65.9909,33.3333 70.7259,53.4253 70.7709,53.6283 L71.0449,54.8373 L69.9079,55.3333 C61.8999,58.8303 55.1969,60.5813 49.8559,60.5813" id="Fill-116" fill="#000000"></path>
                <path d="M45.0177,48.3237 C45.0177,45.1387 47.5977,42.5577 50.7827,42.5577 C53.9667,42.5577 56.5477,45.1387 56.5477,48.3237 C56.5477,51.5077 53.9667,54.0887 50.7827,54.0887 C47.5987,54.0887 45.0177,51.5077 45.0177,48.3237" id="Fill-118" fill="#000000"></path>
                <path d="M50.7823,44.2964 C48.5623,44.2964 46.7563,46.1034 46.7563,48.3234 C46.7563,50.5444 48.5623,52.3504 50.7823,52.3504 C53.0033,52.3504 54.8093,50.5444 54.8093,48.3234 C54.8093,46.1034 53.0033,44.2964 50.7823,44.2964 M50.7823,55.8264 C46.6453,55.8264 43.2793,52.4614 43.2793,48.3234 C43.2793,44.1864 46.6453,40.8194 50.7823,40.8194 C54.9203,40.8194 58.2863,44.1864 58.2863,48.3234 C58.2863,52.4614 54.9203,55.8264 50.7823,55.8264" id="Fill-120" fill="#000000"></path>
            </g>
            <g id="Group-195" transform="translate(126.000000, 30.008000)">
                <mask id="mask-6" fill="white">
                    <use xlink:href="#path-5"></use>
                </mask>
                <g id="Clip-124"></g>
                <polygon id="Fill-123" fill="#F1AAC2" mask="url(#mask-6)" points="29.765 35.74 33.828 35.74 33.828 0.004 29.765 0.004"></polygon>
                <polygon id="Fill-125" fill="#F1AAC2" mask="url(#mask-6)" points="29.346 35.74 29.765 35.74 29.765 0.004 29.346 0.004"></polygon>
                <polygon id="Fill-126" fill="#F1A9C1" mask="url(#mask-6)" points="28.927 35.74 29.346 35.74 29.346 0.004 28.927 0.004"></polygon>
                <polygon id="Fill-127" fill="#F1A8C1" mask="url(#mask-6)" points="28.508 35.74 28.927 35.74 28.927 0.004 28.508 0.004"></polygon>
                <polygon id="Fill-128" fill="#F0A7C0" mask="url(#mask-6)" points="28.088 35.74 28.508 35.74 28.508 0.004 28.088 0.004"></polygon>
                <polygon id="Fill-129" fill="#F0A6BF" mask="url(#mask-6)" points="27.669 35.74 28.088 35.74 28.088 0.004 27.669 0.004"></polygon>
                <polygon id="Fill-130" fill="#F0A5BE" mask="url(#mask-6)" points="27.251 35.74 27.67 35.74 27.67 0.004 27.251 0.004"></polygon>
                <polygon id="Fill-131" fill="#F0A4BE" mask="url(#mask-6)" points="26.832 35.74 27.251 35.74 27.251 0.004 26.832 0.004"></polygon>
                <polygon id="Fill-132" fill="#F0A3BD" mask="url(#mask-6)" points="26.412 35.74 26.832 35.74 26.832 0.004 26.412 0.004"></polygon>
                <polygon id="Fill-133" fill="#F0A2BC" mask="url(#mask-6)" points="25.993 35.74 26.412 35.74 26.412 0.004 25.993 0.004"></polygon>
                <polygon id="Fill-134" fill="#EFA1BB" mask="url(#mask-6)" points="25.574 35.74 25.993 35.74 25.993 0.004 25.574 0.004"></polygon>
                <polygon id="Fill-135" fill="#EFA0BB" mask="url(#mask-6)" points="25.155 35.74 25.574 35.74 25.574 0.004 25.155 0.004"></polygon>
                <polygon id="Fill-136" fill="#EF9FBA" mask="url(#mask-6)" points="24.735 35.74 25.155 35.74 25.155 0.004 24.735 0.004"></polygon>
                <polygon id="Fill-137" fill="#EF9EB9" mask="url(#mask-6)" points="24.316 35.74 24.735 35.74 24.735 0.004 24.316 0.004"></polygon>
                <polygon id="Fill-138" fill="#EF9DB9" mask="url(#mask-6)" points="23.897 35.74 24.316 35.74 24.316 0.004 23.897 0.004"></polygon>
                <polygon id="Fill-139" fill="#EF9CB8" mask="url(#mask-6)" points="23.478 35.74 23.897 35.74 23.897 0.004 23.478 0.004"></polygon>
                <polygon id="Fill-140" fill="#EE9BB7" mask="url(#mask-6)" points="23.058 35.74 23.478 35.74 23.478 0.004 23.058 0.004"></polygon>
                <polygon id="Fill-141" fill="#EE9AB6" mask="url(#mask-6)" points="22.639 35.74 23.058 35.74 23.058 0.004 22.639 0.004"></polygon>
                <polygon id="Fill-142" fill="#EE99B6" mask="url(#mask-6)" points="22.22 35.74 22.639 35.74 22.639 0.004 22.22 0.004"></polygon>
                <polygon id="Fill-143" fill="#EE98B5" mask="url(#mask-6)" points="21.801 35.74 22.22 35.74 22.22 0.004 21.801 0.004"></polygon>
                <polygon id="Fill-144" fill="#EE97B4" mask="url(#mask-6)" points="21.381 35.74 21.801 35.74 21.801 0.004 21.381 0.004"></polygon>
                <polygon id="Fill-145" fill="#EE96B3" mask="url(#mask-6)" points="20.962 35.74 21.381 35.74 21.381 0.004 20.962 0.004"></polygon>
                <polygon id="Fill-146" fill="#ED95B3" mask="url(#mask-6)" points="20.544 35.74 20.963 35.74 20.963 0.004 20.544 0.004"></polygon>
                <polygon id="Fill-147" fill="#ED94B2" mask="url(#mask-6)" points="20.125 35.74 20.544 35.74 20.544 0.004 20.125 0.004"></polygon>
                <polygon id="Fill-148" fill="#ED93B1" mask="url(#mask-6)" points="19.705 35.74 20.125 35.74 20.125 0.004 19.705 0.004"></polygon>
                <polygon id="Fill-149" fill="#ED92B1" mask="url(#mask-6)" points="19.286 35.74 19.705 35.74 19.705 0.004 19.286 0.004"></polygon>
                <polygon id="Fill-150" fill="#ED91B0" mask="url(#mask-6)" points="18.867 35.74 19.286 35.74 19.286 0.004 18.867 0.004"></polygon>
                <polygon id="Fill-151" fill="#ED90AF" mask="url(#mask-6)" points="18.447 35.74 18.867 35.74 18.867 0.004 18.447 0.004"></polygon>
                <polygon id="Fill-152" fill="#EC8FAE" mask="url(#mask-6)" points="18.028 35.74 18.447 35.74 18.447 0.004 18.028 0.004"></polygon>
                <polygon id="Fill-153" fill="#EC8EAE" mask="url(#mask-6)" points="17.609 35.74 18.028 35.74 18.028 0.004 17.609 0.004"></polygon>
                <polygon id="Fill-154" fill="#EC8DAD" mask="url(#mask-6)" points="17.19 35.74 17.609 35.74 17.609 0.004 17.19 0.004"></polygon>
                <polygon id="Fill-155" fill="#EC8CAC" mask="url(#mask-6)" points="16.77 35.74 17.19 35.74 17.19 0.004 16.77 0.004"></polygon>
                <polygon id="Fill-156" fill="#EC8BAB" mask="url(#mask-6)" points="16.351 35.74 16.77 35.74 16.77 0.004 16.351 0.004"></polygon>
                <polygon id="Fill-157" fill="#EC8AAB" mask="url(#mask-6)" points="15.932 35.74 16.351 35.74 16.351 0.004 15.932 0.004"></polygon>
                <polygon id="Fill-158" fill="#EB89AA" mask="url(#mask-6)" points="15.513 35.74 15.932 35.74 15.932 0.004 15.513 0.004"></polygon>
                <polygon id="Fill-159" fill="#EB88A9" mask="url(#mask-6)" points="15.093 35.74 15.513 35.74 15.513 0.004 15.093 0.004"></polygon>
                <polygon id="Fill-160" fill="#EB87A9" mask="url(#mask-6)" points="14.674 35.74 15.093 35.74 15.093 0.004 14.674 0.004"></polygon>
                <polygon id="Fill-161" fill="#EB85A8" mask="url(#mask-6)" points="14.255 35.74 14.674 35.74 14.674 0.004 14.255 0.004"></polygon>
                <polygon id="Fill-162" fill="#EB84A7" mask="url(#mask-6)" points="13.836 35.74 14.255 35.74 14.255 0.004 13.836 0.004"></polygon>
                <polygon id="Fill-163" fill="#EA83A6" mask="url(#mask-6)" points="13.417 35.74 13.837 35.74 13.837 0.004 13.417 0.004"></polygon>
                <polygon id="Fill-164" fill="#EA82A6" mask="url(#mask-6)" points="12.998 35.74 13.417 35.74 13.417 0.004 12.998 0.004"></polygon>
                <polygon id="Fill-165" fill="#EA81A5" mask="url(#mask-6)" points="12.579 35.74 12.998 35.74 12.998 0.004 12.579 0.004"></polygon>
                <polygon id="Fill-166" fill="#EA80A4" mask="url(#mask-6)" points="12.16 35.74 12.579 35.74 12.579 0.004 12.16 0.004"></polygon>
                <polygon id="Fill-167" fill="#EA7FA3" mask="url(#mask-6)" points="11.74 35.74 12.16 35.74 12.16 0.004 11.74 0.004"></polygon>
                <polygon id="Fill-168" fill="#EA7EA3" mask="url(#mask-6)" points="11.321 35.74 11.74 35.74 11.74 0.004 11.321 0.004"></polygon>
                <polygon id="Fill-169" fill="#E97DA2" mask="url(#mask-6)" points="10.902 35.74 11.321 35.74 11.321 0.004 10.902 0.004"></polygon>
                <polygon id="Fill-170" fill="#E97CA1" mask="url(#mask-6)" points="10.483 35.74 10.902 35.74 10.902 0.004 10.483 0.004"></polygon>
                <polygon id="Fill-171" fill="#E97BA0" mask="url(#mask-6)" points="10.063 35.74 10.483 35.74 10.483 0.004 10.063 0.004"></polygon>
                <polygon id="Fill-172" fill="#E97AA0" mask="url(#mask-6)" points="9.644 35.74 10.063 35.74 10.063 0.004 9.644 0.004"></polygon>
                <polygon id="Fill-173" fill="#E9799F" mask="url(#mask-6)" points="9.225 35.74 9.644 35.74 9.644 0.004 9.225 0.004"></polygon>
                <polygon id="Fill-174" fill="#E9789E" mask="url(#mask-6)" points="8.806 35.74 9.225 35.74 9.225 0.004 8.806 0.004"></polygon>
                <polygon id="Fill-175" fill="#E8779E" mask="url(#mask-6)" points="8.386 35.74 8.806 35.74 8.806 0.004 8.386 0.004"></polygon>
                <polygon id="Fill-176" fill="#E8769D" mask="url(#mask-6)" points="7.967 35.74 8.386 35.74 8.386 0.004 7.967 0.004"></polygon>
                <polygon id="Fill-177" fill="#E8759C" mask="url(#mask-6)" points="7.548 35.74 7.967 35.74 7.967 0.004 7.548 0.004"></polygon>
                <polygon id="Fill-178" fill="#E8749B" mask="url(#mask-6)" points="7.129 35.74 7.548 35.74 7.548 0.004 7.129 0.004"></polygon>
                <polygon id="Fill-179" fill="#E8739B" mask="url(#mask-6)" points="6.71 35.74 7.13 35.74 7.13 0.004 6.71 0.004"></polygon>
                <polygon id="Fill-180" fill="#E8729A" mask="url(#mask-6)" points="6.291 35.74 6.71 35.74 6.71 0.004 6.291 0.004"></polygon>
                <polygon id="Fill-181" fill="#E77199" mask="url(#mask-6)" points="5.872 35.74 6.291 35.74 6.291 0.004 5.872 0.004"></polygon>
                <polygon id="Fill-182" fill="#E77098" mask="url(#mask-6)" points="5.453 35.74 5.872 35.74 5.872 0.004 5.453 0.004"></polygon>
                <polygon id="Fill-183" fill="#E76F98" mask="url(#mask-6)" points="5.033 35.74 5.453 35.74 5.453 0.004 5.033 0.004"></polygon>
                <polygon id="Fill-184" fill="#E76E97" mask="url(#mask-6)" points="4.614 35.74 5.033 35.74 5.033 0.004 4.614 0.004"></polygon>
                <polygon id="Fill-185" fill="#E76D96" mask="url(#mask-6)" points="4.195 35.74 4.614 35.74 4.614 0.004 4.195 0.004"></polygon>
                <polygon id="Fill-186" fill="#E76C96" mask="url(#mask-6)" points="3.775 35.74 4.195 35.74 4.195 0.004 3.775 0.004"></polygon>
                <polygon id="Fill-187" fill="#E66B95" mask="url(#mask-6)" points="3.356 35.74 3.775 35.74 3.775 0.004 3.356 0.004"></polygon>
                <polygon id="Fill-188" fill="#E66A94" mask="url(#mask-6)" points="2.937 35.74 3.356 35.74 3.356 0.004 2.937 0.004"></polygon>
                <polygon id="Fill-189" fill="#E66993" mask="url(#mask-6)" points="2.518 35.74 2.937 35.74 2.937 0.004 2.518 0.004"></polygon>
                <polygon id="Fill-190" fill="#E66893" mask="url(#mask-6)" points="2.098 35.74 2.518 35.74 2.518 0.004 2.098 0.004"></polygon>
                <polygon id="Fill-191" fill="#E66792" mask="url(#mask-6)" points="1.679 35.74 2.098 35.74 2.098 0.004 1.679 0.004"></polygon>
                <polygon id="Fill-192" fill="#E66691" mask="url(#mask-6)" points="1.26 35.74 1.679 35.74 1.679 0.004 1.26 0.004"></polygon>
                <polygon id="Fill-193" fill="#E56590" mask="url(#mask-6)" points="0.841 35.74 1.26 35.74 1.26 0.004 0.841 0.004"></polygon>
                <polygon id="Fill-194" fill="#E56490" mask="url(#mask-6)" points="0.826 35.74 0.841 35.74 0.841 0.004 0.826 0.004"></polygon>
            </g>
            <g id="Group-204" transform="translate(16.000000, 29.008000)">
                <path d="M111.4986,24.7969 C117.0376,29.1949 118.3936,30.5169 122.3076,34.3269 L123.8016,35.7789 C133.6056,25.1099 136.8526,16.3429 137.8446,10.8349 C138.6856,6.1579 138.0826,2.9909 137.7636,1.7879 L125.2606,4.4279 C119.2506,11.9189 117.5996,15.1149 116.7086,16.8389 C115.6436,18.8989 115.4386,19.1609 111.4986,21.3179 L111.4986,24.7969 Z M123.8516,37.6989 L121.3706,35.2899 C117.4346,31.4569 116.1086,30.1659 110.4096,25.6479 L110.1546,25.4459 L110.1546,20.5209 L110.5056,20.3299 C114.5256,18.1369 114.5626,18.0649 115.5156,16.2219 C116.4346,14.4419 118.1466,11.1289 124.3636,3.3999 L124.5146,3.2129 L138.6426,0.2299 L138.8496,0.7589 C139.0846,1.3599 144.3776,15.7019 124.3176,37.1979 L123.8516,37.6989 Z" id="Fill-196" fill="#000000"></path>
                <path d="M101.2545,89.2959 C101.2545,89.2959 100.6695,92.5779 100.0265,97.7379 C97.8125,115.4999 94.9075,155.5189 112.7925,160.5879 C135.8735,167.1299 142.4565,186.7889 140.9605,182.2749 C139.4655,177.7599 102.4835,80.8549 101.2545,89.2959" id="Fill-198" fill="#000000"></path>
                <path d="M2.3228,223.9912 L2.3138,142.8742 C2.3138,142.8742 6.1988,120.7322 10.7088,119.8462 C15.2178,118.9612 16.4738,98.2742 16.4738,98.2742 C25.2978,82.2062 25.7168,107.7832 22.2388,118.9612 C18.7608,130.1382 37.6218,118.4522 34.9988,126.9312 C28.7018,147.2852 19.4188,213.6692 22.2388,223.9002 L2.3228,223.9912 Z" id="Fill-200" fill="#FFFFFF"></path>
                <path d="M4.314,143.0488 L4.323,221.9828 L19.911,221.9108 C18.504,205.8618 27.176,145.4498 33.088,126.3408 C33.191,126.0058 33.231,125.7778 33.244,125.6348 C32.481,125.4598 30.555,125.6958 29.359,125.8438 C26.24,126.2318 22.702,126.6638 20.83,124.4208 C19.661,123.0218 19.497,121.0408 20.329,118.3668 C22.856,110.2438 22.67,97.5818 21.11,95.2478 C20.71,95.5418 19.826,96.4028 18.441,98.8518 C17.906,107.2018 16.243,120.7978 11.094,121.8098 C9.36,122.6438 6.171,132.5538 4.314,143.0488 L4.314,143.0488 Z M0.323,225.9998 L0.344,142.5278 C1.883,133.7538 5.227,118.8848 10.323,117.8838 C11.73,117.1118 13.831,108.8038 14.478,98.1528 L14.504,97.7048 L14.721,97.3118 C15.849,95.2578 18.85,89.7958 22.566,91.3828 C28.159,93.7598 26.391,112.3458 24.148,119.5548 C23.667,121.1008 23.811,121.7508 23.899,121.8578 C24.376,122.4278 27.412,122.0538 28.871,121.8738 C31.927,121.4988 34.816,121.1418 36.41,123.0468 C37.322,124.1388 37.49,125.6438 36.909,127.5228 C30.329,148.7928 21.635,214.1838 24.167,223.3688 L24.861,225.8888 L0.323,225.9998 Z" id="Fill-202" fill="#000000"></path>
            </g>
        </g>
    </g>
</svg>