<?xml version="1.0" encoding="UTF-8" standalone="no"?>
<svg width="24px" height="24px" viewBox="0 0 24 24" version="1.1" xmlns="http://www.w3.org/2000/svg" xmlns:xlink="http://www.w3.org/1999/xlink">
    <!-- Generator: Sketch 46.2 (44496) - http://www.bohemiancoding.com/sketch -->
    <title>twitter-with-circle</title>
    <desc>Created with Sketch.</desc>
    <defs></defs>
    <g id="Page-1" stroke="none" stroke-width="1" fill="none" fill-rule="evenodd">
        <g id="twitter-with-circle" fill-rule="nonzero" fill="#000000">
            <path d="M12,0.48 C5.6376,0.48 0.48,5.6376 0.48,12 C0.48,18.3624 5.6376,23.52 12,23.52 C18.3624,23.52 23.52,18.3624 23.52,12 C23.52,5.6376 18.3624,0.48 12,0.48 Z M16.686,9.9168 C16.6908,10.0152 16.692,10.1136 16.692,10.2096 C16.692,13.2096 14.4108,16.6668 10.2372,16.6668 C8.9556,16.6668 7.7628,16.2924 6.7596,15.6468 C6.936,15.6684 7.1172,15.6768 7.3008,15.6768 C8.364,15.6768 9.342,15.3156 10.1184,14.706 C9.126,14.6868 8.2884,14.0316 7.9992,13.1316 C8.1372,13.1568 8.2788,13.1712 8.4252,13.1712 C8.6316,13.1712 8.8332,13.1436 9.0228,13.092 C7.9848,12.8832 7.2024,11.9664 7.2024,10.8672 L7.2024,10.8396 C7.5084,11.0088 7.8588,11.112 8.2308,11.124 C7.6212,10.716 7.2216,10.0224 7.2216,9.234 C7.2216,8.8188 7.3332,8.4276 7.5288,8.0928 C8.6484,9.4656 10.3188,10.368 12.2052,10.4652 C12.1656,10.2984 12.1464,10.1256 12.1464,9.9468 C12.1464,8.6952 13.1616,7.6776 14.4156,7.6776 C15.0672,7.6776 15.6576,7.9536 16.0716,8.3952 C16.5888,8.292 17.0736,8.1048 17.5116,7.8444 C17.3424,8.3736 16.9836,8.8188 16.5144,9.1008 C16.974,9.0444 17.4108,8.9232 17.8176,8.742 C17.514,9.1968 17.1288,9.5976 16.686,9.9168 L16.686,9.9168 Z" id="Shape"></path>
        </g>
    </g>
</svg>